<svg xmlns="http://www.w3.org/2000/svg" version="1.1" xmlns:xlink="http://www.w3.org/1999/xlink" xmlns:svgjs="http://svgjs.dev/svgjs" viewBox="0 0 800 800" opacity="1"><defs><linearGradient gradientTransform="rotate(270)" x1="50%" y1="0%" x2="50%" y2="100%" id="sssquiggly-grad"><stop stop-color="#00ccffff" stop-opacity="1" offset="0%"></stop><stop stop-color="#FF00E6" stop-opacity="1" offset="100%"></stop></linearGradient></defs><g stroke-width="11" stroke="url(#sssquiggly-grad)" fill="none" stroke-linecap="round" transform="matrix(1,0,0,1,-5,155.9902572631836)"><path d="M10,10C17.175925925925924,10.833333333333334,28.00925925925926,17.333333333333332,44.44444444444444,14C60.879629629629626,10.666666666666668,70.37037037037037,-9.958333333333332,88.88888888888889,-6C107.4074074074074,-2.041666666666667,114.8148148148148,36.75,133.33333333333331,33C151.85185185185185,29.25,159.25925925925924,-24.625,177.77777777777777,-24C196.2962962962963,-23.375,203.70370370370372,31.208333333333332,222.22222222222223,36C240.74074074074073,40.791666666666664,248.14814814814812,1.5,266.66666666666663,-1C285.18518518518516,-3.5,292.59259259259255,24,311.1111111111111,24C329.6296296296296,24,337.037037037037,-3.708333333333333,355.55555555555554,-1C374.0740740740741,1.708333333333333,381.48148148148147,37.833333333333336,400,37C418.51851851851853,36.166666666666664,425.9259259259259,-6.041666666666667,444.44444444444446,-5C462.962962962963,-3.958333333333333,470.3703703703704,39.916666666666664,488.88888888888886,42C507.40740740740733,44.083333333333336,514.8148148148148,2.9166666666666665,533.3333333333333,5C551.8518518518517,7.083333333333334,559.2592592592592,53.25,577.7777777777777,52C596.2962962962962,50.75,603.7037037037037,0.875,622.2222222222222,-1C640.7407407407406,-2.875,648.1481481481482,42.583333333333336,666.6666666666666,43C685.1851851851851,43.416666666666664,692.5925925925926,-0.6666666666666665,711.1111111111111,1C729.6296296296296,2.6666666666666665,737.0370370370371,49.958333333333336,755.5555555555555,51C774.074074074074,52.041666666666664,790.7407407407408,15.375,800,6"></path><path d="M10,10C17.175925925925924,10.833333333333334,28.00925925925926,17.333333333333332,44.44444444444444,14C60.879629629629626,10.666666666666668,70.37037037037037,-9.958333333333332,88.88888888888889,-6C107.4074074074074,-2.041666666666667,114.8148148148148,36.75,133.33333333333331,33C151.85185185185185,29.25,159.25925925925924,-24.625,177.77777777777777,-24C196.2962962962963,-23.375,203.70370370370372,31.208333333333332,222.22222222222223,36C240.74074074074073,40.791666666666664,248.14814814814812,1.5,266.66666666666663,-1C285.18518518518516,-3.5,292.59259259259255,24,311.1111111111111,24C329.6296296296296,24,337.037037037037,-3.708333333333333,355.55555555555554,-1C374.0740740740741,1.708333333333333,381.48148148148147,37.833333333333336,400,37C418.51851851851853,36.166666666666664,425.9259259259259,-6.041666666666667,444.44444444444446,-5C462.962962962963,-3.958333333333333,470.3703703703704,39.916666666666664,488.88888888888886,42C507.40740740740733,44.083333333333336,514.8148148148148,2.9166666666666665,533.3333333333333,5C551.8518518518517,7.083333333333334,559.2592592592592,53.25,577.7777777777777,52C596.2962962962962,50.75,603.7037037037037,0.875,622.2222222222222,-1C640.7407407407406,-2.875,648.1481481481482,42.583333333333336,666.6666666666666,43C685.1851851851851,43.416666666666664,692.5925925925926,-0.6666666666666665,711.1111111111111,1C729.6296296296296,2.6666666666666665,737.0370370370371,49.958333333333336,755.5555555555555,51C774.074074074074,52.041666666666664,790.7407407407408,15.375,800,6" transform="matrix(1,0,0,1,0,460)"></path><path d="M10,10C17.175925925925924,10.833333333333334,28.00925925925926,17.333333333333332,44.44444444444444,14C60.879629629629626,10.666666666666668,70.37037037037037,-9.958333333333332,88.88888888888889,-6C107.4074074074074,-2.041666666666667,114.8148148148148,36.75,133.33333333333331,33C151.85185185185185,29.25,159.25925925925924,-24.625,177.77777777777777,-24C196.2962962962963,-23.375,203.70370370370372,31.208333333333332,222.22222222222223,36C240.74074074074073,40.791666666666664,248.14814814814812,1.5,266.66666666666663,-1C285.18518518518516,-3.5,292.59259259259255,24,311.1111111111111,24C329.6296296296296,24,337.037037037037,-3.708333333333333,355.55555555555554,-1C374.0740740740741,1.708333333333333,381.48148148148147,37.833333333333336,400,37C418.51851851851853,36.166666666666664,425.9259259259259,-6.041666666666667,444.44444444444446,-5C462.962962962963,-3.958333333333333,470.3703703703704,39.916666666666664,488.88888888888886,42C507.40740740740733,44.083333333333336,514.8148148148148,2.9166666666666665,533.3333333333333,5C551.8518518518517,7.083333333333334,559.2592592592592,53.25,577.7777777777777,52C596.2962962962962,50.75,603.7037037037037,0.875,622.2222222222222,-1C640.7407407407406,-2.875,648.1481481481482,42.583333333333336,666.6666666666666,43C685.1851851851851,43.416666666666664,692.5925925925926,-0.6666666666666665,711.1111111111111,1C729.6296296296296,2.6666666666666665,737.0370370370371,49.958333333333336,755.5555555555555,51C774.074074074074,52.041666666666664,790.7407407407408,15.375,800,6" transform="matrix(1,0,0,1,0,450)"></path><path d="M10,10C17.175925925925924,10.833333333333334,28.00925925925926,17.333333333333332,44.44444444444444,14C60.879629629629626,10.666666666666668,70.37037037037037,-9.958333333333332,88.88888888888889,-6C107.4074074074074,-2.041666666666667,114.8148148148148,36.75,133.33333333333331,33C151.85185185185185,29.25,159.25925925925924,-24.625,177.77777777777777,-24C196.2962962962963,-23.375,203.70370370370372,31.208333333333332,222.22222222222223,36C240.74074074074073,40.791666666666664,248.14814814814812,1.5,266.66666666666663,-1C285.18518518518516,-3.5,292.59259259259255,24,311.1111111111111,24C329.6296296296296,24,337.037037037037,-3.708333333333333,355.55555555555554,-1C374.0740740740741,1.708333333333333,381.48148148148147,37.833333333333336,400,37C418.51851851851853,36.166666666666664,425.9259259259259,-6.041666666666667,444.44444444444446,-5C462.962962962963,-3.958333333333333,470.3703703703704,39.916666666666664,488.88888888888886,42C507.40740740740733,44.083333333333336,514.8148148148148,2.9166666666666665,533.3333333333333,5C551.8518518518517,7.083333333333334,559.2592592592592,53.25,577.7777777777777,52C596.2962962962962,50.75,603.7037037037037,0.875,622.2222222222222,-1C640.7407407407406,-2.875,648.1481481481482,42.583333333333336,666.6666666666666,43C685.1851851851851,43.416666666666664,692.5925925925926,-0.6666666666666665,711.1111111111111,1C729.6296296296296,2.6666666666666665,737.0370370370371,49.958333333333336,755.5555555555555,51C774.074074074074,52.041666666666664,790.7407407407408,15.375,800,6" transform="matrix(1,0,0,1,0,440)"></path><path d="M10,10C17.175925925925924,10.833333333333334,28.00925925925926,17.333333333333332,44.44444444444444,14C60.879629629629626,10.666666666666668,70.37037037037037,-9.958333333333332,88.88888888888889,-6C107.4074074074074,-2.041666666666667,114.8148148148148,36.75,133.33333333333331,33C151.85185185185185,29.25,159.25925925925924,-24.625,177.77777777777777,-24C196.2962962962963,-23.375,203.70370370370372,31.208333333333332,222.22222222222223,36C240.74074074074073,40.791666666666664,248.14814814814812,1.5,266.66666666666663,-1C285.18518518518516,-3.5,292.59259259259255,24,311.1111111111111,24C329.6296296296296,24,337.037037037037,-3.708333333333333,355.55555555555554,-1C374.0740740740741,1.708333333333333,381.48148148148147,37.833333333333336,400,37C418.51851851851853,36.166666666666664,425.9259259259259,-6.041666666666667,444.44444444444446,-5C462.962962962963,-3.958333333333333,470.3703703703704,39.916666666666664,488.88888888888886,42C507.40740740740733,44.083333333333336,514.8148148148148,2.9166666666666665,533.3333333333333,5C551.8518518518517,7.083333333333334,559.2592592592592,53.25,577.7777777777777,52C596.2962962962962,50.75,603.7037037037037,0.875,622.2222222222222,-1C640.7407407407406,-2.875,648.1481481481482,42.583333333333336,666.6666666666666,43C685.1851851851851,43.416666666666664,692.5925925925926,-0.6666666666666665,711.1111111111111,1C729.6296296296296,2.6666666666666665,737.0370370370371,49.958333333333336,755.5555555555555,51C774.074074074074,52.041666666666664,790.7407407407408,15.375,800,6" transform="matrix(1,0,0,1,0,430)"></path><path d="M10,10C17.175925925925924,10.833333333333334,28.00925925925926,17.333333333333332,44.44444444444444,14C60.879629629629626,10.666666666666668,70.37037037037037,-9.958333333333332,88.88888888888889,-6C107.4074074074074,-2.041666666666667,114.8148148148148,36.75,133.33333333333331,33C151.85185185185185,29.25,159.25925925925924,-24.625,177.77777777777777,-24C196.2962962962963,-23.375,203.70370370370372,31.208333333333332,222.22222222222223,36C240.74074074074073,40.791666666666664,248.14814814814812,1.5,266.66666666666663,-1C285.18518518518516,-3.5,292.59259259259255,24,311.1111111111111,24C329.6296296296296,24,337.037037037037,-3.708333333333333,355.55555555555554,-1C374.0740740740741,1.708333333333333,381.48148148148147,37.833333333333336,400,37C418.51851851851853,36.166666666666664,425.9259259259259,-6.041666666666667,444.44444444444446,-5C462.962962962963,-3.958333333333333,470.3703703703704,39.916666666666664,488.88888888888886,42C507.40740740740733,44.083333333333336,514.8148148148148,2.9166666666666665,533.3333333333333,5C551.8518518518517,7.083333333333334,559.2592592592592,53.25,577.7777777777777,52C596.2962962962962,50.75,603.7037037037037,0.875,622.2222222222222,-1C640.7407407407406,-2.875,648.1481481481482,42.583333333333336,666.6666666666666,43C685.1851851851851,43.416666666666664,692.5925925925926,-0.6666666666666665,711.1111111111111,1C729.6296296296296,2.6666666666666665,737.0370370370371,49.958333333333336,755.5555555555555,51C774.074074074074,52.041666666666664,790.7407407407408,15.375,800,6" transform="matrix(1,0,0,1,0,420)"></path><path d="M10,10C17.175925925925924,10.833333333333334,28.00925925925926,17.333333333333332,44.44444444444444,14C60.879629629629626,10.666666666666668,70.37037037037037,-9.958333333333332,88.88888888888889,-6C107.4074074074074,-2.041666666666667,114.8148148148148,36.75,133.33333333333331,33C151.85185185185185,29.25,159.25925925925924,-24.625,177.77777777777777,-24C196.2962962962963,-23.375,203.70370370370372,31.208333333333332,222.22222222222223,36C240.74074074074073,40.791666666666664,248.14814814814812,1.5,266.66666666666663,-1C285.18518518518516,-3.5,292.59259259259255,24,311.1111111111111,24C329.6296296296296,24,337.037037037037,-3.708333333333333,355.55555555555554,-1C374.0740740740741,1.708333333333333,381.48148148148147,37.833333333333336,400,37C418.51851851851853,36.166666666666664,425.9259259259259,-6.041666666666667,444.44444444444446,-5C462.962962962963,-3.958333333333333,470.3703703703704,39.916666666666664,488.88888888888886,42C507.40740740740733,44.083333333333336,514.8148148148148,2.9166666666666665,533.3333333333333,5C551.8518518518517,7.083333333333334,559.2592592592592,53.25,577.7777777777777,52C596.2962962962962,50.75,603.7037037037037,0.875,622.2222222222222,-1C640.7407407407406,-2.875,648.1481481481482,42.583333333333336,666.6666666666666,43C685.1851851851851,43.416666666666664,692.5925925925926,-0.6666666666666665,711.1111111111111,1C729.6296296296296,2.6666666666666665,737.0370370370371,49.958333333333336,755.5555555555555,51C774.074074074074,52.041666666666664,790.7407407407408,15.375,800,6" transform="matrix(1,0,0,1,0,410)"></path><path d="M10,10C17.175925925925924,10.833333333333334,28.00925925925926,17.333333333333332,44.44444444444444,14C60.879629629629626,10.666666666666668,70.37037037037037,-9.958333333333332,88.88888888888889,-6C107.4074074074074,-2.041666666666667,114.8148148148148,36.75,133.33333333333331,33C151.85185185185185,29.25,159.25925925925924,-24.625,177.77777777777777,-24C196.2962962962963,-23.375,203.70370370370372,31.208333333333332,222.22222222222223,36C240.74074074074073,40.791666666666664,248.14814814814812,1.5,266.66666666666663,-1C285.18518518518516,-3.5,292.59259259259255,24,311.1111111111111,24C329.6296296296296,24,337.037037037037,-3.708333333333333,355.55555555555554,-1C374.0740740740741,1.708333333333333,381.48148148148147,37.833333333333336,400,37C418.51851851851853,36.166666666666664,425.9259259259259,-6.041666666666667,444.44444444444446,-5C462.962962962963,-3.958333333333333,470.3703703703704,39.916666666666664,488.88888888888886,42C507.40740740740733,44.083333333333336,514.8148148148148,2.9166666666666665,533.3333333333333,5C551.8518518518517,7.083333333333334,559.2592592592592,53.25,577.7777777777777,52C596.2962962962962,50.75,603.7037037037037,0.875,622.2222222222222,-1C640.7407407407406,-2.875,648.1481481481482,42.583333333333336,666.6666666666666,43C685.1851851851851,43.416666666666664,692.5925925925926,-0.6666666666666665,711.1111111111111,1C729.6296296296296,2.6666666666666665,737.0370370370371,49.958333333333336,755.5555555555555,51C774.074074074074,52.041666666666664,790.7407407407408,15.375,800,6" transform="matrix(1,0,0,1,0,400)"></path><path d="M10,10C17.175925925925924,10.833333333333334,28.00925925925926,17.333333333333332,44.44444444444444,14C60.879629629629626,10.666666666666668,70.37037037037037,-9.958333333333332,88.88888888888889,-6C107.4074074074074,-2.041666666666667,114.8148148148148,36.75,133.33333333333331,33C151.85185185185185,29.25,159.25925925925924,-24.625,177.77777777777777,-24C196.2962962962963,-23.375,203.70370370370372,31.208333333333332,222.22222222222223,36C240.74074074074073,40.791666666666664,248.14814814814812,1.5,266.66666666666663,-1C285.18518518518516,-3.5,292.59259259259255,24,311.1111111111111,24C329.6296296296296,24,337.037037037037,-3.708333333333333,355.55555555555554,-1C374.0740740740741,1.708333333333333,381.48148148148147,37.833333333333336,400,37C418.51851851851853,36.166666666666664,425.9259259259259,-6.041666666666667,444.44444444444446,-5C462.962962962963,-3.958333333333333,470.3703703703704,39.916666666666664,488.88888888888886,42C507.40740740740733,44.083333333333336,514.8148148148148,2.9166666666666665,533.3333333333333,5C551.8518518518517,7.083333333333334,559.2592592592592,53.25,577.7777777777777,52C596.2962962962962,50.75,603.7037037037037,0.875,622.2222222222222,-1C640.7407407407406,-2.875,648.1481481481482,42.583333333333336,666.6666666666666,43C685.1851851851851,43.416666666666664,692.5925925925926,-0.6666666666666665,711.1111111111111,1C729.6296296296296,2.6666666666666665,737.0370370370371,49.958333333333336,755.5555555555555,51C774.074074074074,52.041666666666664,790.7407407407408,15.375,800,6" transform="matrix(1,0,0,1,0,390)"></path><path d="M10,10C17.175925925925924,10.833333333333334,28.00925925925926,17.333333333333332,44.44444444444444,14C60.879629629629626,10.666666666666668,70.37037037037037,-9.958333333333332,88.88888888888889,-6C107.4074074074074,-2.041666666666667,114.8148148148148,36.75,133.33333333333331,33C151.85185185185185,29.25,159.25925925925924,-24.625,177.77777777777777,-24C196.2962962962963,-23.375,203.70370370370372,31.208333333333332,222.22222222222223,36C240.74074074074073,40.791666666666664,248.14814814814812,1.5,266.66666666666663,-1C285.18518518518516,-3.5,292.59259259259255,24,311.1111111111111,24C329.6296296296296,24,337.037037037037,-3.708333333333333,355.55555555555554,-1C374.0740740740741,1.708333333333333,381.48148148148147,37.833333333333336,400,37C418.51851851851853,36.166666666666664,425.9259259259259,-6.041666666666667,444.44444444444446,-5C462.962962962963,-3.958333333333333,470.3703703703704,39.916666666666664,488.88888888888886,42C507.40740740740733,44.083333333333336,514.8148148148148,2.9166666666666665,533.3333333333333,5C551.8518518518517,7.083333333333334,559.2592592592592,53.25,577.7777777777777,52C596.2962962962962,50.75,603.7037037037037,0.875,622.2222222222222,-1C640.7407407407406,-2.875,648.1481481481482,42.583333333333336,666.6666666666666,43C685.1851851851851,43.416666666666664,692.5925925925926,-0.6666666666666665,711.1111111111111,1C729.6296296296296,2.6666666666666665,737.0370370370371,49.958333333333336,755.5555555555555,51C774.074074074074,52.041666666666664,790.7407407407408,15.375,800,6" transform="matrix(1,0,0,1,0,380)"></path><path d="M10,10C17.175925925925924,10.833333333333334,28.00925925925926,17.333333333333332,44.44444444444444,14C60.879629629629626,10.666666666666668,70.37037037037037,-9.958333333333332,88.88888888888889,-6C107.4074074074074,-2.041666666666667,114.8148148148148,36.75,133.33333333333331,33C151.85185185185185,29.25,159.25925925925924,-24.625,177.77777777777777,-24C196.2962962962963,-23.375,203.70370370370372,31.208333333333332,222.22222222222223,36C240.74074074074073,40.791666666666664,248.14814814814812,1.5,266.66666666666663,-1C285.18518518518516,-3.5,292.59259259259255,24,311.1111111111111,24C329.6296296296296,24,337.037037037037,-3.708333333333333,355.55555555555554,-1C374.0740740740741,1.708333333333333,381.48148148148147,37.833333333333336,400,37C418.51851851851853,36.166666666666664,425.9259259259259,-6.041666666666667,444.44444444444446,-5C462.962962962963,-3.958333333333333,470.3703703703704,39.916666666666664,488.88888888888886,42C507.40740740740733,44.083333333333336,514.8148148148148,2.9166666666666665,533.3333333333333,5C551.8518518518517,7.083333333333334,559.2592592592592,53.25,577.7777777777777,52C596.2962962962962,50.75,603.7037037037037,0.875,622.2222222222222,-1C640.7407407407406,-2.875,648.1481481481482,42.583333333333336,666.6666666666666,43C685.1851851851851,43.416666666666664,692.5925925925926,-0.6666666666666665,711.1111111111111,1C729.6296296296296,2.6666666666666665,737.0370370370371,49.958333333333336,755.5555555555555,51C774.074074074074,52.041666666666664,790.7407407407408,15.375,800,6" transform="matrix(1,0,0,1,0,370)"></path><path d="M10,10C17.175925925925924,10.833333333333334,28.00925925925926,17.333333333333332,44.44444444444444,14C60.879629629629626,10.666666666666668,70.37037037037037,-9.958333333333332,88.88888888888889,-6C107.4074074074074,-2.041666666666667,114.8148148148148,36.75,133.33333333333331,33C151.85185185185185,29.25,159.25925925925924,-24.625,177.77777777777777,-24C196.2962962962963,-23.375,203.70370370370372,31.208333333333332,222.22222222222223,36C240.74074074074073,40.791666666666664,248.14814814814812,1.5,266.66666666666663,-1C285.18518518518516,-3.5,292.59259259259255,24,311.1111111111111,24C329.6296296296296,24,337.037037037037,-3.708333333333333,355.55555555555554,-1C374.0740740740741,1.708333333333333,381.48148148148147,37.833333333333336,400,37C418.51851851851853,36.166666666666664,425.9259259259259,-6.041666666666667,444.44444444444446,-5C462.962962962963,-3.958333333333333,470.3703703703704,39.916666666666664,488.88888888888886,42C507.40740740740733,44.083333333333336,514.8148148148148,2.9166666666666665,533.3333333333333,5C551.8518518518517,7.083333333333334,559.2592592592592,53.25,577.7777777777777,52C596.2962962962962,50.75,603.7037037037037,0.875,622.2222222222222,-1C640.7407407407406,-2.875,648.1481481481482,42.583333333333336,666.6666666666666,43C685.1851851851851,43.416666666666664,692.5925925925926,-0.6666666666666665,711.1111111111111,1C729.6296296296296,2.6666666666666665,737.0370370370371,49.958333333333336,755.5555555555555,51C774.074074074074,52.041666666666664,790.7407407407408,15.375,800,6" transform="matrix(1,0,0,1,0,360)"></path><path d="M10,10C17.175925925925924,10.833333333333334,28.00925925925926,17.333333333333332,44.44444444444444,14C60.879629629629626,10.666666666666668,70.37037037037037,-9.958333333333332,88.88888888888889,-6C107.4074074074074,-2.041666666666667,114.8148148148148,36.75,133.33333333333331,33C151.85185185185185,29.25,159.25925925925924,-24.625,177.77777777777777,-24C196.2962962962963,-23.375,203.70370370370372,31.208333333333332,222.22222222222223,36C240.74074074074073,40.791666666666664,248.14814814814812,1.5,266.66666666666663,-1C285.18518518518516,-3.5,292.59259259259255,24,311.1111111111111,24C329.6296296296296,24,337.037037037037,-3.708333333333333,355.55555555555554,-1C374.0740740740741,1.708333333333333,381.48148148148147,37.833333333333336,400,37C418.51851851851853,36.166666666666664,425.9259259259259,-6.041666666666667,444.44444444444446,-5C462.962962962963,-3.958333333333333,470.3703703703704,39.916666666666664,488.88888888888886,42C507.40740740740733,44.083333333333336,514.8148148148148,2.9166666666666665,533.3333333333333,5C551.8518518518517,7.083333333333334,559.2592592592592,53.25,577.7777777777777,52C596.2962962962962,50.75,603.7037037037037,0.875,622.2222222222222,-1C640.7407407407406,-2.875,648.1481481481482,42.583333333333336,666.6666666666666,43C685.1851851851851,43.416666666666664,692.5925925925926,-0.6666666666666665,711.1111111111111,1C729.6296296296296,2.6666666666666665,737.0370370370371,49.958333333333336,755.5555555555555,51C774.074074074074,52.041666666666664,790.7407407407408,15.375,800,6" transform="matrix(1,0,0,1,0,350)"></path><path d="M10,10C17.175925925925924,10.833333333333334,28.00925925925926,17.333333333333332,44.44444444444444,14C60.879629629629626,10.666666666666668,70.37037037037037,-9.958333333333332,88.88888888888889,-6C107.4074074074074,-2.041666666666667,114.8148148148148,36.75,133.33333333333331,33C151.85185185185185,29.25,159.25925925925924,-24.625,177.77777777777777,-24C196.2962962962963,-23.375,203.70370370370372,31.208333333333332,222.22222222222223,36C240.74074074074073,40.791666666666664,248.14814814814812,1.5,266.66666666666663,-1C285.18518518518516,-3.5,292.59259259259255,24,311.1111111111111,24C329.6296296296296,24,337.037037037037,-3.708333333333333,355.55555555555554,-1C374.0740740740741,1.708333333333333,381.48148148148147,37.833333333333336,400,37C418.51851851851853,36.166666666666664,425.9259259259259,-6.041666666666667,444.44444444444446,-5C462.962962962963,-3.958333333333333,470.3703703703704,39.916666666666664,488.88888888888886,42C507.40740740740733,44.083333333333336,514.8148148148148,2.9166666666666665,533.3333333333333,5C551.8518518518517,7.083333333333334,559.2592592592592,53.25,577.7777777777777,52C596.2962962962962,50.75,603.7037037037037,0.875,622.2222222222222,-1C640.7407407407406,-2.875,648.1481481481482,42.583333333333336,666.6666666666666,43C685.1851851851851,43.416666666666664,692.5925925925926,-0.6666666666666665,711.1111111111111,1C729.6296296296296,2.6666666666666665,737.0370370370371,49.958333333333336,755.5555555555555,51C774.074074074074,52.041666666666664,790.7407407407408,15.375,800,6" transform="matrix(1,0,0,1,0,340)"></path><path d="M10,10C17.175925925925924,10.833333333333334,28.00925925925926,17.333333333333332,44.44444444444444,14C60.879629629629626,10.666666666666668,70.37037037037037,-9.958333333333332,88.88888888888889,-6C107.4074074074074,-2.041666666666667,114.8148148148148,36.75,133.33333333333331,33C151.85185185185185,29.25,159.25925925925924,-24.625,177.77777777777777,-24C196.2962962962963,-23.375,203.70370370370372,31.208333333333332,222.22222222222223,36C240.74074074074073,40.791666666666664,248.14814814814812,1.5,266.66666666666663,-1C285.18518518518516,-3.5,292.59259259259255,24,311.1111111111111,24C329.6296296296296,24,337.037037037037,-3.708333333333333,355.55555555555554,-1C374.0740740740741,1.708333333333333,381.48148148148147,37.833333333333336,400,37C418.51851851851853,36.166666666666664,425.9259259259259,-6.041666666666667,444.44444444444446,-5C462.962962962963,-3.958333333333333,470.3703703703704,39.916666666666664,488.88888888888886,42C507.40740740740733,44.083333333333336,514.8148148148148,2.9166666666666665,533.3333333333333,5C551.8518518518517,7.083333333333334,559.2592592592592,53.25,577.7777777777777,52C596.2962962962962,50.75,603.7037037037037,0.875,622.2222222222222,-1C640.7407407407406,-2.875,648.1481481481482,42.583333333333336,666.6666666666666,43C685.1851851851851,43.416666666666664,692.5925925925926,-0.6666666666666665,711.1111111111111,1C729.6296296296296,2.6666666666666665,737.0370370370371,49.958333333333336,755.5555555555555,51C774.074074074074,52.041666666666664,790.7407407407408,15.375,800,6" transform="matrix(1,0,0,1,0,330)"></path><path d="M10,10C17.175925925925924,10.833333333333334,28.00925925925926,17.333333333333332,44.44444444444444,14C60.879629629629626,10.666666666666668,70.37037037037037,-9.958333333333332,88.88888888888889,-6C107.4074074074074,-2.041666666666667,114.8148148148148,36.75,133.33333333333331,33C151.85185185185185,29.25,159.25925925925924,-24.625,177.77777777777777,-24C196.2962962962963,-23.375,203.70370370370372,31.208333333333332,222.22222222222223,36C240.74074074074073,40.791666666666664,248.14814814814812,1.5,266.66666666666663,-1C285.18518518518516,-3.5,292.59259259259255,24,311.1111111111111,24C329.6296296296296,24,337.037037037037,-3.708333333333333,355.55555555555554,-1C374.0740740740741,1.708333333333333,381.48148148148147,37.833333333333336,400,37C418.51851851851853,36.166666666666664,425.9259259259259,-6.041666666666667,444.44444444444446,-5C462.962962962963,-3.958333333333333,470.3703703703704,39.916666666666664,488.88888888888886,42C507.40740740740733,44.083333333333336,514.8148148148148,2.9166666666666665,533.3333333333333,5C551.8518518518517,7.083333333333334,559.2592592592592,53.25,577.7777777777777,52C596.2962962962962,50.75,603.7037037037037,0.875,622.2222222222222,-1C640.7407407407406,-2.875,648.1481481481482,42.583333333333336,666.6666666666666,43C685.1851851851851,43.416666666666664,692.5925925925926,-0.6666666666666665,711.1111111111111,1C729.6296296296296,2.6666666666666665,737.0370370370371,49.958333333333336,755.5555555555555,51C774.074074074074,52.041666666666664,790.7407407407408,15.375,800,6" transform="matrix(1,0,0,1,0,320)"></path><path d="M10,10C17.175925925925924,10.833333333333334,28.00925925925926,17.333333333333332,44.44444444444444,14C60.879629629629626,10.666666666666668,70.37037037037037,-9.958333333333332,88.88888888888889,-6C107.4074074074074,-2.041666666666667,114.8148148148148,36.75,133.33333333333331,33C151.85185185185185,29.25,159.25925925925924,-24.625,177.77777777777777,-24C196.2962962962963,-23.375,203.70370370370372,31.208333333333332,222.22222222222223,36C240.74074074074073,40.791666666666664,248.14814814814812,1.5,266.66666666666663,-1C285.18518518518516,-3.5,292.59259259259255,24,311.1111111111111,24C329.6296296296296,24,337.037037037037,-3.708333333333333,355.55555555555554,-1C374.0740740740741,1.708333333333333,381.48148148148147,37.833333333333336,400,37C418.51851851851853,36.166666666666664,425.9259259259259,-6.041666666666667,444.44444444444446,-5C462.962962962963,-3.958333333333333,470.3703703703704,39.916666666666664,488.88888888888886,42C507.40740740740733,44.083333333333336,514.8148148148148,2.9166666666666665,533.3333333333333,5C551.8518518518517,7.083333333333334,559.2592592592592,53.25,577.7777777777777,52C596.2962962962962,50.75,603.7037037037037,0.875,622.2222222222222,-1C640.7407407407406,-2.875,648.1481481481482,42.583333333333336,666.6666666666666,43C685.1851851851851,43.416666666666664,692.5925925925926,-0.6666666666666665,711.1111111111111,1C729.6296296296296,2.6666666666666665,737.0370370370371,49.958333333333336,755.5555555555555,51C774.074074074074,52.041666666666664,790.7407407407408,15.375,800,6" transform="matrix(1,0,0,1,0,310)"></path><path d="M10,10C17.175925925925924,10.833333333333334,28.00925925925926,17.333333333333332,44.44444444444444,14C60.879629629629626,10.666666666666668,70.37037037037037,-9.958333333333332,88.88888888888889,-6C107.4074074074074,-2.041666666666667,114.8148148148148,36.75,133.33333333333331,33C151.85185185185185,29.25,159.25925925925924,-24.625,177.77777777777777,-24C196.2962962962963,-23.375,203.70370370370372,31.208333333333332,222.22222222222223,36C240.74074074074073,40.791666666666664,248.14814814814812,1.5,266.66666666666663,-1C285.18518518518516,-3.5,292.59259259259255,24,311.1111111111111,24C329.6296296296296,24,337.037037037037,-3.708333333333333,355.55555555555554,-1C374.0740740740741,1.708333333333333,381.48148148148147,37.833333333333336,400,37C418.51851851851853,36.166666666666664,425.9259259259259,-6.041666666666667,444.44444444444446,-5C462.962962962963,-3.958333333333333,470.3703703703704,39.916666666666664,488.88888888888886,42C507.40740740740733,44.083333333333336,514.8148148148148,2.9166666666666665,533.3333333333333,5C551.8518518518517,7.083333333333334,559.2592592592592,53.25,577.7777777777777,52C596.2962962962962,50.75,603.7037037037037,0.875,622.2222222222222,-1C640.7407407407406,-2.875,648.1481481481482,42.583333333333336,666.6666666666666,43C685.1851851851851,43.416666666666664,692.5925925925926,-0.6666666666666665,711.1111111111111,1C729.6296296296296,2.6666666666666665,737.0370370370371,49.958333333333336,755.5555555555555,51C774.074074074074,52.041666666666664,790.7407407407408,15.375,800,6" transform="matrix(1,0,0,1,0,300)"></path><path d="M10,10C17.175925925925924,10.833333333333334,28.00925925925926,17.333333333333332,44.44444444444444,14C60.879629629629626,10.666666666666668,70.37037037037037,-9.958333333333332,88.88888888888889,-6C107.4074074074074,-2.041666666666667,114.8148148148148,36.75,133.33333333333331,33C151.85185185185185,29.25,159.25925925925924,-24.625,177.77777777777777,-24C196.2962962962963,-23.375,203.70370370370372,31.208333333333332,222.22222222222223,36C240.74074074074073,40.791666666666664,248.14814814814812,1.5,266.66666666666663,-1C285.18518518518516,-3.5,292.59259259259255,24,311.1111111111111,24C329.6296296296296,24,337.037037037037,-3.708333333333333,355.55555555555554,-1C374.0740740740741,1.708333333333333,381.48148148148147,37.833333333333336,400,37C418.51851851851853,36.166666666666664,425.9259259259259,-6.041666666666667,444.44444444444446,-5C462.962962962963,-3.958333333333333,470.3703703703704,39.916666666666664,488.88888888888886,42C507.40740740740733,44.083333333333336,514.8148148148148,2.9166666666666665,533.3333333333333,5C551.8518518518517,7.083333333333334,559.2592592592592,53.25,577.7777777777777,52C596.2962962962962,50.75,603.7037037037037,0.875,622.2222222222222,-1C640.7407407407406,-2.875,648.1481481481482,42.583333333333336,666.6666666666666,43C685.1851851851851,43.416666666666664,692.5925925925926,-0.6666666666666665,711.1111111111111,1C729.6296296296296,2.6666666666666665,737.0370370370371,49.958333333333336,755.5555555555555,51C774.074074074074,52.041666666666664,790.7407407407408,15.375,800,6" transform="matrix(1,0,0,1,0,290)"></path><path d="M10,10C17.175925925925924,10.833333333333334,28.00925925925926,17.333333333333332,44.44444444444444,14C60.879629629629626,10.666666666666668,70.37037037037037,-9.958333333333332,88.88888888888889,-6C107.4074074074074,-2.041666666666667,114.8148148148148,36.75,133.33333333333331,33C151.85185185185185,29.25,159.25925925925924,-24.625,177.77777777777777,-24C196.2962962962963,-23.375,203.70370370370372,31.208333333333332,222.22222222222223,36C240.74074074074073,40.791666666666664,248.14814814814812,1.5,266.66666666666663,-1C285.18518518518516,-3.5,292.59259259259255,24,311.1111111111111,24C329.6296296296296,24,337.037037037037,-3.708333333333333,355.55555555555554,-1C374.0740740740741,1.708333333333333,381.48148148148147,37.833333333333336,400,37C418.51851851851853,36.166666666666664,425.9259259259259,-6.041666666666667,444.44444444444446,-5C462.962962962963,-3.958333333333333,470.3703703703704,39.916666666666664,488.88888888888886,42C507.40740740740733,44.083333333333336,514.8148148148148,2.9166666666666665,533.3333333333333,5C551.8518518518517,7.083333333333334,559.2592592592592,53.25,577.7777777777777,52C596.2962962962962,50.75,603.7037037037037,0.875,622.2222222222222,-1C640.7407407407406,-2.875,648.1481481481482,42.583333333333336,666.6666666666666,43C685.1851851851851,43.416666666666664,692.5925925925926,-0.6666666666666665,711.1111111111111,1C729.6296296296296,2.6666666666666665,737.0370370370371,49.958333333333336,755.5555555555555,51C774.074074074074,52.041666666666664,790.7407407407408,15.375,800,6" transform="matrix(1,0,0,1,0,280)"></path><path d="M10,10C17.175925925925924,10.833333333333334,28.00925925925926,17.333333333333332,44.44444444444444,14C60.879629629629626,10.666666666666668,70.37037037037037,-9.958333333333332,88.88888888888889,-6C107.4074074074074,-2.041666666666667,114.8148148148148,36.75,133.33333333333331,33C151.85185185185185,29.25,159.25925925925924,-24.625,177.77777777777777,-24C196.2962962962963,-23.375,203.70370370370372,31.208333333333332,222.22222222222223,36C240.74074074074073,40.791666666666664,248.14814814814812,1.5,266.66666666666663,-1C285.18518518518516,-3.5,292.59259259259255,24,311.1111111111111,24C329.6296296296296,24,337.037037037037,-3.708333333333333,355.55555555555554,-1C374.0740740740741,1.708333333333333,381.48148148148147,37.833333333333336,400,37C418.51851851851853,36.166666666666664,425.9259259259259,-6.041666666666667,444.44444444444446,-5C462.962962962963,-3.958333333333333,470.3703703703704,39.916666666666664,488.88888888888886,42C507.40740740740733,44.083333333333336,514.8148148148148,2.9166666666666665,533.3333333333333,5C551.8518518518517,7.083333333333334,559.2592592592592,53.25,577.7777777777777,52C596.2962962962962,50.75,603.7037037037037,0.875,622.2222222222222,-1C640.7407407407406,-2.875,648.1481481481482,42.583333333333336,666.6666666666666,43C685.1851851851851,43.416666666666664,692.5925925925926,-0.6666666666666665,711.1111111111111,1C729.6296296296296,2.6666666666666665,737.0370370370371,49.958333333333336,755.5555555555555,51C774.074074074074,52.041666666666664,790.7407407407408,15.375,800,6" transform="matrix(1,0,0,1,0,270)"></path><path d="M10,10C17.175925925925924,10.833333333333334,28.00925925925926,17.333333333333332,44.44444444444444,14C60.879629629629626,10.666666666666668,70.37037037037037,-9.958333333333332,88.88888888888889,-6C107.4074074074074,-2.041666666666667,114.8148148148148,36.75,133.33333333333331,33C151.85185185185185,29.25,159.25925925925924,-24.625,177.77777777777777,-24C196.2962962962963,-23.375,203.70370370370372,31.208333333333332,222.22222222222223,36C240.74074074074073,40.791666666666664,248.14814814814812,1.5,266.66666666666663,-1C285.18518518518516,-3.5,292.59259259259255,24,311.1111111111111,24C329.6296296296296,24,337.037037037037,-3.708333333333333,355.55555555555554,-1C374.0740740740741,1.708333333333333,381.48148148148147,37.833333333333336,400,37C418.51851851851853,36.166666666666664,425.9259259259259,-6.041666666666667,444.44444444444446,-5C462.962962962963,-3.958333333333333,470.3703703703704,39.916666666666664,488.88888888888886,42C507.40740740740733,44.083333333333336,514.8148148148148,2.9166666666666665,533.3333333333333,5C551.8518518518517,7.083333333333334,559.2592592592592,53.25,577.7777777777777,52C596.2962962962962,50.75,603.7037037037037,0.875,622.2222222222222,-1C640.7407407407406,-2.875,648.1481481481482,42.583333333333336,666.6666666666666,43C685.1851851851851,43.416666666666664,692.5925925925926,-0.6666666666666665,711.1111111111111,1C729.6296296296296,2.6666666666666665,737.0370370370371,49.958333333333336,755.5555555555555,51C774.074074074074,52.041666666666664,790.7407407407408,15.375,800,6" transform="matrix(1,0,0,1,0,260)"></path><path d="M10,10C17.175925925925924,10.833333333333334,28.00925925925926,17.333333333333332,44.44444444444444,14C60.879629629629626,10.666666666666668,70.37037037037037,-9.958333333333332,88.88888888888889,-6C107.4074074074074,-2.041666666666667,114.8148148148148,36.75,133.33333333333331,33C151.85185185185185,29.25,159.25925925925924,-24.625,177.77777777777777,-24C196.2962962962963,-23.375,203.70370370370372,31.208333333333332,222.22222222222223,36C240.74074074074073,40.791666666666664,248.14814814814812,1.5,266.66666666666663,-1C285.18518518518516,-3.5,292.59259259259255,24,311.1111111111111,24C329.6296296296296,24,337.037037037037,-3.708333333333333,355.55555555555554,-1C374.0740740740741,1.708333333333333,381.48148148148147,37.833333333333336,400,37C418.51851851851853,36.166666666666664,425.9259259259259,-6.041666666666667,444.44444444444446,-5C462.962962962963,-3.958333333333333,470.3703703703704,39.916666666666664,488.88888888888886,42C507.40740740740733,44.083333333333336,514.8148148148148,2.9166666666666665,533.3333333333333,5C551.8518518518517,7.083333333333334,559.2592592592592,53.25,577.7777777777777,52C596.2962962962962,50.75,603.7037037037037,0.875,622.2222222222222,-1C640.7407407407406,-2.875,648.1481481481482,42.583333333333336,666.6666666666666,43C685.1851851851851,43.416666666666664,692.5925925925926,-0.6666666666666665,711.1111111111111,1C729.6296296296296,2.6666666666666665,737.0370370370371,49.958333333333336,755.5555555555555,51C774.074074074074,52.041666666666664,790.7407407407408,15.375,800,6" transform="matrix(1,0,0,1,0,250)"></path><path d="M10,10C17.175925925925924,10.833333333333334,28.00925925925926,17.333333333333332,44.44444444444444,14C60.879629629629626,10.666666666666668,70.37037037037037,-9.958333333333332,88.88888888888889,-6C107.4074074074074,-2.041666666666667,114.8148148148148,36.75,133.33333333333331,33C151.85185185185185,29.25,159.25925925925924,-24.625,177.77777777777777,-24C196.2962962962963,-23.375,203.70370370370372,31.208333333333332,222.22222222222223,36C240.74074074074073,40.791666666666664,248.14814814814812,1.5,266.66666666666663,-1C285.18518518518516,-3.5,292.59259259259255,24,311.1111111111111,24C329.6296296296296,24,337.037037037037,-3.708333333333333,355.55555555555554,-1C374.0740740740741,1.708333333333333,381.48148148148147,37.833333333333336,400,37C418.51851851851853,36.166666666666664,425.9259259259259,-6.041666666666667,444.44444444444446,-5C462.962962962963,-3.958333333333333,470.3703703703704,39.916666666666664,488.88888888888886,42C507.40740740740733,44.083333333333336,514.8148148148148,2.9166666666666665,533.3333333333333,5C551.8518518518517,7.083333333333334,559.2592592592592,53.25,577.7777777777777,52C596.2962962962962,50.75,603.7037037037037,0.875,622.2222222222222,-1C640.7407407407406,-2.875,648.1481481481482,42.583333333333336,666.6666666666666,43C685.1851851851851,43.416666666666664,692.5925925925926,-0.6666666666666665,711.1111111111111,1C729.6296296296296,2.6666666666666665,737.0370370370371,49.958333333333336,755.5555555555555,51C774.074074074074,52.041666666666664,790.7407407407408,15.375,800,6" transform="matrix(1,0,0,1,0,240)"></path><path d="M10,10C17.175925925925924,10.833333333333334,28.00925925925926,17.333333333333332,44.44444444444444,14C60.879629629629626,10.666666666666668,70.37037037037037,-9.958333333333332,88.88888888888889,-6C107.4074074074074,-2.041666666666667,114.8148148148148,36.75,133.33333333333331,33C151.85185185185185,29.25,159.25925925925924,-24.625,177.77777777777777,-24C196.2962962962963,-23.375,203.70370370370372,31.208333333333332,222.22222222222223,36C240.74074074074073,40.791666666666664,248.14814814814812,1.5,266.66666666666663,-1C285.18518518518516,-3.5,292.59259259259255,24,311.1111111111111,24C329.6296296296296,24,337.037037037037,-3.708333333333333,355.55555555555554,-1C374.0740740740741,1.708333333333333,381.48148148148147,37.833333333333336,400,37C418.51851851851853,36.166666666666664,425.9259259259259,-6.041666666666667,444.44444444444446,-5C462.962962962963,-3.958333333333333,470.3703703703704,39.916666666666664,488.88888888888886,42C507.40740740740733,44.083333333333336,514.8148148148148,2.9166666666666665,533.3333333333333,5C551.8518518518517,7.083333333333334,559.2592592592592,53.25,577.7777777777777,52C596.2962962962962,50.75,603.7037037037037,0.875,622.2222222222222,-1C640.7407407407406,-2.875,648.1481481481482,42.583333333333336,666.6666666666666,43C685.1851851851851,43.416666666666664,692.5925925925926,-0.6666666666666665,711.1111111111111,1C729.6296296296296,2.6666666666666665,737.0370370370371,49.958333333333336,755.5555555555555,51C774.074074074074,52.041666666666664,790.7407407407408,15.375,800,6" transform="matrix(1,0,0,1,0,230)"></path><path d="M10,10C17.175925925925924,10.833333333333334,28.00925925925926,17.333333333333332,44.44444444444444,14C60.879629629629626,10.666666666666668,70.37037037037037,-9.958333333333332,88.88888888888889,-6C107.4074074074074,-2.041666666666667,114.8148148148148,36.75,133.33333333333331,33C151.85185185185185,29.25,159.25925925925924,-24.625,177.77777777777777,-24C196.2962962962963,-23.375,203.70370370370372,31.208333333333332,222.22222222222223,36C240.74074074074073,40.791666666666664,248.14814814814812,1.5,266.66666666666663,-1C285.18518518518516,-3.5,292.59259259259255,24,311.1111111111111,24C329.6296296296296,24,337.037037037037,-3.708333333333333,355.55555555555554,-1C374.0740740740741,1.708333333333333,381.48148148148147,37.833333333333336,400,37C418.51851851851853,36.166666666666664,425.9259259259259,-6.041666666666667,444.44444444444446,-5C462.962962962963,-3.958333333333333,470.3703703703704,39.916666666666664,488.88888888888886,42C507.40740740740733,44.083333333333336,514.8148148148148,2.9166666666666665,533.3333333333333,5C551.8518518518517,7.083333333333334,559.2592592592592,53.25,577.7777777777777,52C596.2962962962962,50.75,603.7037037037037,0.875,622.2222222222222,-1C640.7407407407406,-2.875,648.1481481481482,42.583333333333336,666.6666666666666,43C685.1851851851851,43.416666666666664,692.5925925925926,-0.6666666666666665,711.1111111111111,1C729.6296296296296,2.6666666666666665,737.0370370370371,49.958333333333336,755.5555555555555,51C774.074074074074,52.041666666666664,790.7407407407408,15.375,800,6" transform="matrix(1,0,0,1,0,220)"></path><path d="M10,10C17.175925925925924,10.833333333333334,28.00925925925926,17.333333333333332,44.44444444444444,14C60.879629629629626,10.666666666666668,70.37037037037037,-9.958333333333332,88.88888888888889,-6C107.4074074074074,-2.041666666666667,114.8148148148148,36.75,133.33333333333331,33C151.85185185185185,29.25,159.25925925925924,-24.625,177.77777777777777,-24C196.2962962962963,-23.375,203.70370370370372,31.208333333333332,222.22222222222223,36C240.74074074074073,40.791666666666664,248.14814814814812,1.5,266.66666666666663,-1C285.18518518518516,-3.5,292.59259259259255,24,311.1111111111111,24C329.6296296296296,24,337.037037037037,-3.708333333333333,355.55555555555554,-1C374.0740740740741,1.708333333333333,381.48148148148147,37.833333333333336,400,37C418.51851851851853,36.166666666666664,425.9259259259259,-6.041666666666667,444.44444444444446,-5C462.962962962963,-3.958333333333333,470.3703703703704,39.916666666666664,488.88888888888886,42C507.40740740740733,44.083333333333336,514.8148148148148,2.9166666666666665,533.3333333333333,5C551.8518518518517,7.083333333333334,559.2592592592592,53.25,577.7777777777777,52C596.2962962962962,50.75,603.7037037037037,0.875,622.2222222222222,-1C640.7407407407406,-2.875,648.1481481481482,42.583333333333336,666.6666666666666,43C685.1851851851851,43.416666666666664,692.5925925925926,-0.6666666666666665,711.1111111111111,1C729.6296296296296,2.6666666666666665,737.0370370370371,49.958333333333336,755.5555555555555,51C774.074074074074,52.041666666666664,790.7407407407408,15.375,800,6" transform="matrix(1,0,0,1,0,210)"></path><path d="M10,10C17.175925925925924,10.833333333333334,28.00925925925926,17.333333333333332,44.44444444444444,14C60.879629629629626,10.666666666666668,70.37037037037037,-9.958333333333332,88.88888888888889,-6C107.4074074074074,-2.041666666666667,114.8148148148148,36.75,133.33333333333331,33C151.85185185185185,29.25,159.25925925925924,-24.625,177.77777777777777,-24C196.2962962962963,-23.375,203.70370370370372,31.208333333333332,222.22222222222223,36C240.74074074074073,40.791666666666664,248.14814814814812,1.5,266.66666666666663,-1C285.18518518518516,-3.5,292.59259259259255,24,311.1111111111111,24C329.6296296296296,24,337.037037037037,-3.708333333333333,355.55555555555554,-1C374.0740740740741,1.708333333333333,381.48148148148147,37.833333333333336,400,37C418.51851851851853,36.166666666666664,425.9259259259259,-6.041666666666667,444.44444444444446,-5C462.962962962963,-3.958333333333333,470.3703703703704,39.916666666666664,488.88888888888886,42C507.40740740740733,44.083333333333336,514.8148148148148,2.9166666666666665,533.3333333333333,5C551.8518518518517,7.083333333333334,559.2592592592592,53.25,577.7777777777777,52C596.2962962962962,50.75,603.7037037037037,0.875,622.2222222222222,-1C640.7407407407406,-2.875,648.1481481481482,42.583333333333336,666.6666666666666,43C685.1851851851851,43.416666666666664,692.5925925925926,-0.6666666666666665,711.1111111111111,1C729.6296296296296,2.6666666666666665,737.0370370370371,49.958333333333336,755.5555555555555,51C774.074074074074,52.041666666666664,790.7407407407408,15.375,800,6" transform="matrix(1,0,0,1,0,200)"></path><path d="M10,10C17.175925925925924,10.833333333333334,28.00925925925926,17.333333333333332,44.44444444444444,14C60.879629629629626,10.666666666666668,70.37037037037037,-9.958333333333332,88.88888888888889,-6C107.4074074074074,-2.041666666666667,114.8148148148148,36.75,133.33333333333331,33C151.85185185185185,29.25,159.25925925925924,-24.625,177.77777777777777,-24C196.2962962962963,-23.375,203.70370370370372,31.208333333333332,222.22222222222223,36C240.74074074074073,40.791666666666664,248.14814814814812,1.5,266.66666666666663,-1C285.18518518518516,-3.5,292.59259259259255,24,311.1111111111111,24C329.6296296296296,24,337.037037037037,-3.708333333333333,355.55555555555554,-1C374.0740740740741,1.708333333333333,381.48148148148147,37.833333333333336,400,37C418.51851851851853,36.166666666666664,425.9259259259259,-6.041666666666667,444.44444444444446,-5C462.962962962963,-3.958333333333333,470.3703703703704,39.916666666666664,488.88888888888886,42C507.40740740740733,44.083333333333336,514.8148148148148,2.9166666666666665,533.3333333333333,5C551.8518518518517,7.083333333333334,559.2592592592592,53.25,577.7777777777777,52C596.2962962962962,50.75,603.7037037037037,0.875,622.2222222222222,-1C640.7407407407406,-2.875,648.1481481481482,42.583333333333336,666.6666666666666,43C685.1851851851851,43.416666666666664,692.5925925925926,-0.6666666666666665,711.1111111111111,1C729.6296296296296,2.6666666666666665,737.0370370370371,49.958333333333336,755.5555555555555,51C774.074074074074,52.041666666666664,790.7407407407408,15.375,800,6" transform="matrix(1,0,0,1,0,190)"></path><path d="M10,10C17.175925925925924,10.833333333333334,28.00925925925926,17.333333333333332,44.44444444444444,14C60.879629629629626,10.666666666666668,70.37037037037037,-9.958333333333332,88.88888888888889,-6C107.4074074074074,-2.041666666666667,114.8148148148148,36.75,133.33333333333331,33C151.85185185185185,29.25,159.25925925925924,-24.625,177.77777777777777,-24C196.2962962962963,-23.375,203.70370370370372,31.208333333333332,222.22222222222223,36C240.74074074074073,40.791666666666664,248.14814814814812,1.5,266.66666666666663,-1C285.18518518518516,-3.5,292.59259259259255,24,311.1111111111111,24C329.6296296296296,24,337.037037037037,-3.708333333333333,355.55555555555554,-1C374.0740740740741,1.708333333333333,381.48148148148147,37.833333333333336,400,37C418.51851851851853,36.166666666666664,425.9259259259259,-6.041666666666667,444.44444444444446,-5C462.962962962963,-3.958333333333333,470.3703703703704,39.916666666666664,488.88888888888886,42C507.40740740740733,44.083333333333336,514.8148148148148,2.9166666666666665,533.3333333333333,5C551.8518518518517,7.083333333333334,559.2592592592592,53.25,577.7777777777777,52C596.2962962962962,50.75,603.7037037037037,0.875,622.2222222222222,-1C640.7407407407406,-2.875,648.1481481481482,42.583333333333336,666.6666666666666,43C685.1851851851851,43.416666666666664,692.5925925925926,-0.6666666666666665,711.1111111111111,1C729.6296296296296,2.6666666666666665,737.0370370370371,49.958333333333336,755.5555555555555,51C774.074074074074,52.041666666666664,790.7407407407408,15.375,800,6" transform="matrix(1,0,0,1,0,180)"></path><path d="M10,10C17.175925925925924,10.833333333333334,28.00925925925926,17.333333333333332,44.44444444444444,14C60.879629629629626,10.666666666666668,70.37037037037037,-9.958333333333332,88.88888888888889,-6C107.4074074074074,-2.041666666666667,114.8148148148148,36.75,133.33333333333331,33C151.85185185185185,29.25,159.25925925925924,-24.625,177.77777777777777,-24C196.2962962962963,-23.375,203.70370370370372,31.208333333333332,222.22222222222223,36C240.74074074074073,40.791666666666664,248.14814814814812,1.5,266.66666666666663,-1C285.18518518518516,-3.5,292.59259259259255,24,311.1111111111111,24C329.6296296296296,24,337.037037037037,-3.708333333333333,355.55555555555554,-1C374.0740740740741,1.708333333333333,381.48148148148147,37.833333333333336,400,37C418.51851851851853,36.166666666666664,425.9259259259259,-6.041666666666667,444.44444444444446,-5C462.962962962963,-3.958333333333333,470.3703703703704,39.916666666666664,488.88888888888886,42C507.40740740740733,44.083333333333336,514.8148148148148,2.9166666666666665,533.3333333333333,5C551.8518518518517,7.083333333333334,559.2592592592592,53.25,577.7777777777777,52C596.2962962962962,50.75,603.7037037037037,0.875,622.2222222222222,-1C640.7407407407406,-2.875,648.1481481481482,42.583333333333336,666.6666666666666,43C685.1851851851851,43.416666666666664,692.5925925925926,-0.6666666666666665,711.1111111111111,1C729.6296296296296,2.6666666666666665,737.0370370370371,49.958333333333336,755.5555555555555,51C774.074074074074,52.041666666666664,790.7407407407408,15.375,800,6" transform="matrix(1,0,0,1,0,170)"></path><path d="M10,10C17.175925925925924,10.833333333333334,28.00925925925926,17.333333333333332,44.44444444444444,14C60.879629629629626,10.666666666666668,70.37037037037037,-9.958333333333332,88.88888888888889,-6C107.4074074074074,-2.041666666666667,114.8148148148148,36.75,133.33333333333331,33C151.85185185185185,29.25,159.25925925925924,-24.625,177.77777777777777,-24C196.2962962962963,-23.375,203.70370370370372,31.208333333333332,222.22222222222223,36C240.74074074074073,40.791666666666664,248.14814814814812,1.5,266.66666666666663,-1C285.18518518518516,-3.5,292.59259259259255,24,311.1111111111111,24C329.6296296296296,24,337.037037037037,-3.708333333333333,355.55555555555554,-1C374.0740740740741,1.708333333333333,381.48148148148147,37.833333333333336,400,37C418.51851851851853,36.166666666666664,425.9259259259259,-6.041666666666667,444.44444444444446,-5C462.962962962963,-3.958333333333333,470.3703703703704,39.916666666666664,488.88888888888886,42C507.40740740740733,44.083333333333336,514.8148148148148,2.9166666666666665,533.3333333333333,5C551.8518518518517,7.083333333333334,559.2592592592592,53.25,577.7777777777777,52C596.2962962962962,50.75,603.7037037037037,0.875,622.2222222222222,-1C640.7407407407406,-2.875,648.1481481481482,42.583333333333336,666.6666666666666,43C685.1851851851851,43.416666666666664,692.5925925925926,-0.6666666666666665,711.1111111111111,1C729.6296296296296,2.6666666666666665,737.0370370370371,49.958333333333336,755.5555555555555,51C774.074074074074,52.041666666666664,790.7407407407408,15.375,800,6" transform="matrix(1,0,0,1,0,160)"></path><path d="M10,10C17.175925925925924,10.833333333333334,28.00925925925926,17.333333333333332,44.44444444444444,14C60.879629629629626,10.666666666666668,70.37037037037037,-9.958333333333332,88.88888888888889,-6C107.4074074074074,-2.041666666666667,114.8148148148148,36.75,133.33333333333331,33C151.85185185185185,29.25,159.25925925925924,-24.625,177.77777777777777,-24C196.2962962962963,-23.375,203.70370370370372,31.208333333333332,222.22222222222223,36C240.74074074074073,40.791666666666664,248.14814814814812,1.5,266.66666666666663,-1C285.18518518518516,-3.5,292.59259259259255,24,311.1111111111111,24C329.6296296296296,24,337.037037037037,-3.708333333333333,355.55555555555554,-1C374.0740740740741,1.708333333333333,381.48148148148147,37.833333333333336,400,37C418.51851851851853,36.166666666666664,425.9259259259259,-6.041666666666667,444.44444444444446,-5C462.962962962963,-3.958333333333333,470.3703703703704,39.916666666666664,488.88888888888886,42C507.40740740740733,44.083333333333336,514.8148148148148,2.9166666666666665,533.3333333333333,5C551.8518518518517,7.083333333333334,559.2592592592592,53.25,577.7777777777777,52C596.2962962962962,50.75,603.7037037037037,0.875,622.2222222222222,-1C640.7407407407406,-2.875,648.1481481481482,42.583333333333336,666.6666666666666,43C685.1851851851851,43.416666666666664,692.5925925925926,-0.6666666666666665,711.1111111111111,1C729.6296296296296,2.6666666666666665,737.0370370370371,49.958333333333336,755.5555555555555,51C774.074074074074,52.041666666666664,790.7407407407408,15.375,800,6" transform="matrix(1,0,0,1,0,150)"></path><path d="M10,10C17.175925925925924,10.833333333333334,28.00925925925926,17.333333333333332,44.44444444444444,14C60.879629629629626,10.666666666666668,70.37037037037037,-9.958333333333332,88.88888888888889,-6C107.4074074074074,-2.041666666666667,114.8148148148148,36.75,133.33333333333331,33C151.85185185185185,29.25,159.25925925925924,-24.625,177.77777777777777,-24C196.2962962962963,-23.375,203.70370370370372,31.208333333333332,222.22222222222223,36C240.74074074074073,40.791666666666664,248.14814814814812,1.5,266.66666666666663,-1C285.18518518518516,-3.5,292.59259259259255,24,311.1111111111111,24C329.6296296296296,24,337.037037037037,-3.708333333333333,355.55555555555554,-1C374.0740740740741,1.708333333333333,381.48148148148147,37.833333333333336,400,37C418.51851851851853,36.166666666666664,425.9259259259259,-6.041666666666667,444.44444444444446,-5C462.962962962963,-3.958333333333333,470.3703703703704,39.916666666666664,488.88888888888886,42C507.40740740740733,44.083333333333336,514.8148148148148,2.9166666666666665,533.3333333333333,5C551.8518518518517,7.083333333333334,559.2592592592592,53.25,577.7777777777777,52C596.2962962962962,50.75,603.7037037037037,0.875,622.2222222222222,-1C640.7407407407406,-2.875,648.1481481481482,42.583333333333336,666.6666666666666,43C685.1851851851851,43.416666666666664,692.5925925925926,-0.6666666666666665,711.1111111111111,1C729.6296296296296,2.6666666666666665,737.0370370370371,49.958333333333336,755.5555555555555,51C774.074074074074,52.041666666666664,790.7407407407408,15.375,800,6" transform="matrix(1,0,0,1,0,140)"></path><path d="M10,10C17.175925925925924,10.833333333333334,28.00925925925926,17.333333333333332,44.44444444444444,14C60.879629629629626,10.666666666666668,70.37037037037037,-9.958333333333332,88.88888888888889,-6C107.4074074074074,-2.041666666666667,114.8148148148148,36.75,133.33333333333331,33C151.85185185185185,29.25,159.25925925925924,-24.625,177.77777777777777,-24C196.2962962962963,-23.375,203.70370370370372,31.208333333333332,222.22222222222223,36C240.74074074074073,40.791666666666664,248.14814814814812,1.5,266.66666666666663,-1C285.18518518518516,-3.5,292.59259259259255,24,311.1111111111111,24C329.6296296296296,24,337.037037037037,-3.708333333333333,355.55555555555554,-1C374.0740740740741,1.708333333333333,381.48148148148147,37.833333333333336,400,37C418.51851851851853,36.166666666666664,425.9259259259259,-6.041666666666667,444.44444444444446,-5C462.962962962963,-3.958333333333333,470.3703703703704,39.916666666666664,488.88888888888886,42C507.40740740740733,44.083333333333336,514.8148148148148,2.9166666666666665,533.3333333333333,5C551.8518518518517,7.083333333333334,559.2592592592592,53.25,577.7777777777777,52C596.2962962962962,50.75,603.7037037037037,0.875,622.2222222222222,-1C640.7407407407406,-2.875,648.1481481481482,42.583333333333336,666.6666666666666,43C685.1851851851851,43.416666666666664,692.5925925925926,-0.6666666666666665,711.1111111111111,1C729.6296296296296,2.6666666666666665,737.0370370370371,49.958333333333336,755.5555555555555,51C774.074074074074,52.041666666666664,790.7407407407408,15.375,800,6" transform="matrix(1,0,0,1,0,130)"></path><path d="M10,10C17.175925925925924,10.833333333333334,28.00925925925926,17.333333333333332,44.44444444444444,14C60.879629629629626,10.666666666666668,70.37037037037037,-9.958333333333332,88.88888888888889,-6C107.4074074074074,-2.041666666666667,114.8148148148148,36.75,133.33333333333331,33C151.85185185185185,29.25,159.25925925925924,-24.625,177.77777777777777,-24C196.2962962962963,-23.375,203.70370370370372,31.208333333333332,222.22222222222223,36C240.74074074074073,40.791666666666664,248.14814814814812,1.5,266.66666666666663,-1C285.18518518518516,-3.5,292.59259259259255,24,311.1111111111111,24C329.6296296296296,24,337.037037037037,-3.708333333333333,355.55555555555554,-1C374.0740740740741,1.708333333333333,381.48148148148147,37.833333333333336,400,37C418.51851851851853,36.166666666666664,425.9259259259259,-6.041666666666667,444.44444444444446,-5C462.962962962963,-3.958333333333333,470.3703703703704,39.916666666666664,488.88888888888886,42C507.40740740740733,44.083333333333336,514.8148148148148,2.9166666666666665,533.3333333333333,5C551.8518518518517,7.083333333333334,559.2592592592592,53.25,577.7777777777777,52C596.2962962962962,50.75,603.7037037037037,0.875,622.2222222222222,-1C640.7407407407406,-2.875,648.1481481481482,42.583333333333336,666.6666666666666,43C685.1851851851851,43.416666666666664,692.5925925925926,-0.6666666666666665,711.1111111111111,1C729.6296296296296,2.6666666666666665,737.0370370370371,49.958333333333336,755.5555555555555,51C774.074074074074,52.041666666666664,790.7407407407408,15.375,800,6" transform="matrix(1,0,0,1,0,120)"></path><path d="M10,10C17.175925925925924,10.833333333333334,28.00925925925926,17.333333333333332,44.44444444444444,14C60.879629629629626,10.666666666666668,70.37037037037037,-9.958333333333332,88.88888888888889,-6C107.4074074074074,-2.041666666666667,114.8148148148148,36.75,133.33333333333331,33C151.85185185185185,29.25,159.25925925925924,-24.625,177.77777777777777,-24C196.2962962962963,-23.375,203.70370370370372,31.208333333333332,222.22222222222223,36C240.74074074074073,40.791666666666664,248.14814814814812,1.5,266.66666666666663,-1C285.18518518518516,-3.5,292.59259259259255,24,311.1111111111111,24C329.6296296296296,24,337.037037037037,-3.708333333333333,355.55555555555554,-1C374.0740740740741,1.708333333333333,381.48148148148147,37.833333333333336,400,37C418.51851851851853,36.166666666666664,425.9259259259259,-6.041666666666667,444.44444444444446,-5C462.962962962963,-3.958333333333333,470.3703703703704,39.916666666666664,488.88888888888886,42C507.40740740740733,44.083333333333336,514.8148148148148,2.9166666666666665,533.3333333333333,5C551.8518518518517,7.083333333333334,559.2592592592592,53.25,577.7777777777777,52C596.2962962962962,50.75,603.7037037037037,0.875,622.2222222222222,-1C640.7407407407406,-2.875,648.1481481481482,42.583333333333336,666.6666666666666,43C685.1851851851851,43.416666666666664,692.5925925925926,-0.6666666666666665,711.1111111111111,1C729.6296296296296,2.6666666666666665,737.0370370370371,49.958333333333336,755.5555555555555,51C774.074074074074,52.041666666666664,790.7407407407408,15.375,800,6" transform="matrix(1,0,0,1,0,110)"></path><path d="M10,10C17.175925925925924,10.833333333333334,28.00925925925926,17.333333333333332,44.44444444444444,14C60.879629629629626,10.666666666666668,70.37037037037037,-9.958333333333332,88.88888888888889,-6C107.4074074074074,-2.041666666666667,114.8148148148148,36.75,133.33333333333331,33C151.85185185185185,29.25,159.25925925925924,-24.625,177.77777777777777,-24C196.2962962962963,-23.375,203.70370370370372,31.208333333333332,222.22222222222223,36C240.74074074074073,40.791666666666664,248.14814814814812,1.5,266.66666666666663,-1C285.18518518518516,-3.5,292.59259259259255,24,311.1111111111111,24C329.6296296296296,24,337.037037037037,-3.708333333333333,355.55555555555554,-1C374.0740740740741,1.708333333333333,381.48148148148147,37.833333333333336,400,37C418.51851851851853,36.166666666666664,425.9259259259259,-6.041666666666667,444.44444444444446,-5C462.962962962963,-3.958333333333333,470.3703703703704,39.916666666666664,488.88888888888886,42C507.40740740740733,44.083333333333336,514.8148148148148,2.9166666666666665,533.3333333333333,5C551.8518518518517,7.083333333333334,559.2592592592592,53.25,577.7777777777777,52C596.2962962962962,50.75,603.7037037037037,0.875,622.2222222222222,-1C640.7407407407406,-2.875,648.1481481481482,42.583333333333336,666.6666666666666,43C685.1851851851851,43.416666666666664,692.5925925925926,-0.6666666666666665,711.1111111111111,1C729.6296296296296,2.6666666666666665,737.0370370370371,49.958333333333336,755.5555555555555,51C774.074074074074,52.041666666666664,790.7407407407408,15.375,800,6" transform="matrix(1,0,0,1,0,100)"></path><path d="M10,10C17.175925925925924,10.833333333333334,28.00925925925926,17.333333333333332,44.44444444444444,14C60.879629629629626,10.666666666666668,70.37037037037037,-9.958333333333332,88.88888888888889,-6C107.4074074074074,-2.041666666666667,114.8148148148148,36.75,133.33333333333331,33C151.85185185185185,29.25,159.25925925925924,-24.625,177.77777777777777,-24C196.2962962962963,-23.375,203.70370370370372,31.208333333333332,222.22222222222223,36C240.74074074074073,40.791666666666664,248.14814814814812,1.5,266.66666666666663,-1C285.18518518518516,-3.5,292.59259259259255,24,311.1111111111111,24C329.6296296296296,24,337.037037037037,-3.708333333333333,355.55555555555554,-1C374.0740740740741,1.708333333333333,381.48148148148147,37.833333333333336,400,37C418.51851851851853,36.166666666666664,425.9259259259259,-6.041666666666667,444.44444444444446,-5C462.962962962963,-3.958333333333333,470.3703703703704,39.916666666666664,488.88888888888886,42C507.40740740740733,44.083333333333336,514.8148148148148,2.9166666666666665,533.3333333333333,5C551.8518518518517,7.083333333333334,559.2592592592592,53.25,577.7777777777777,52C596.2962962962962,50.75,603.7037037037037,0.875,622.2222222222222,-1C640.7407407407406,-2.875,648.1481481481482,42.583333333333336,666.6666666666666,43C685.1851851851851,43.416666666666664,692.5925925925926,-0.6666666666666665,711.1111111111111,1C729.6296296296296,2.6666666666666665,737.0370370370371,49.958333333333336,755.5555555555555,51C774.074074074074,52.041666666666664,790.7407407407408,15.375,800,6" transform="matrix(1,0,0,1,0,90)"></path><path d="M10,10C17.175925925925924,10.833333333333334,28.00925925925926,17.333333333333332,44.44444444444444,14C60.879629629629626,10.666666666666668,70.37037037037037,-9.958333333333332,88.88888888888889,-6C107.4074074074074,-2.041666666666667,114.8148148148148,36.75,133.33333333333331,33C151.85185185185185,29.25,159.25925925925924,-24.625,177.77777777777777,-24C196.2962962962963,-23.375,203.70370370370372,31.208333333333332,222.22222222222223,36C240.74074074074073,40.791666666666664,248.14814814814812,1.5,266.66666666666663,-1C285.18518518518516,-3.5,292.59259259259255,24,311.1111111111111,24C329.6296296296296,24,337.037037037037,-3.708333333333333,355.55555555555554,-1C374.0740740740741,1.708333333333333,381.48148148148147,37.833333333333336,400,37C418.51851851851853,36.166666666666664,425.9259259259259,-6.041666666666667,444.44444444444446,-5C462.962962962963,-3.958333333333333,470.3703703703704,39.916666666666664,488.88888888888886,42C507.40740740740733,44.083333333333336,514.8148148148148,2.9166666666666665,533.3333333333333,5C551.8518518518517,7.083333333333334,559.2592592592592,53.25,577.7777777777777,52C596.2962962962962,50.75,603.7037037037037,0.875,622.2222222222222,-1C640.7407407407406,-2.875,648.1481481481482,42.583333333333336,666.6666666666666,43C685.1851851851851,43.416666666666664,692.5925925925926,-0.6666666666666665,711.1111111111111,1C729.6296296296296,2.6666666666666665,737.0370370370371,49.958333333333336,755.5555555555555,51C774.074074074074,52.041666666666664,790.7407407407408,15.375,800,6" transform="matrix(1,0,0,1,0,80)"></path><path d="M10,10C17.175925925925924,10.833333333333334,28.00925925925926,17.333333333333332,44.44444444444444,14C60.879629629629626,10.666666666666668,70.37037037037037,-9.958333333333332,88.88888888888889,-6C107.4074074074074,-2.041666666666667,114.8148148148148,36.75,133.33333333333331,33C151.85185185185185,29.25,159.25925925925924,-24.625,177.77777777777777,-24C196.2962962962963,-23.375,203.70370370370372,31.208333333333332,222.22222222222223,36C240.74074074074073,40.791666666666664,248.14814814814812,1.5,266.66666666666663,-1C285.18518518518516,-3.5,292.59259259259255,24,311.1111111111111,24C329.6296296296296,24,337.037037037037,-3.708333333333333,355.55555555555554,-1C374.0740740740741,1.708333333333333,381.48148148148147,37.833333333333336,400,37C418.51851851851853,36.166666666666664,425.9259259259259,-6.041666666666667,444.44444444444446,-5C462.962962962963,-3.958333333333333,470.3703703703704,39.916666666666664,488.88888888888886,42C507.40740740740733,44.083333333333336,514.8148148148148,2.9166666666666665,533.3333333333333,5C551.8518518518517,7.083333333333334,559.2592592592592,53.25,577.7777777777777,52C596.2962962962962,50.75,603.7037037037037,0.875,622.2222222222222,-1C640.7407407407406,-2.875,648.1481481481482,42.583333333333336,666.6666666666666,43C685.1851851851851,43.416666666666664,692.5925925925926,-0.6666666666666665,711.1111111111111,1C729.6296296296296,2.6666666666666665,737.0370370370371,49.958333333333336,755.5555555555555,51C774.074074074074,52.041666666666664,790.7407407407408,15.375,800,6" transform="matrix(1,0,0,1,0,70)"></path><path d="M10,10C17.175925925925924,10.833333333333334,28.00925925925926,17.333333333333332,44.44444444444444,14C60.879629629629626,10.666666666666668,70.37037037037037,-9.958333333333332,88.88888888888889,-6C107.4074074074074,-2.041666666666667,114.8148148148148,36.75,133.33333333333331,33C151.85185185185185,29.25,159.25925925925924,-24.625,177.77777777777777,-24C196.2962962962963,-23.375,203.70370370370372,31.208333333333332,222.22222222222223,36C240.74074074074073,40.791666666666664,248.14814814814812,1.5,266.66666666666663,-1C285.18518518518516,-3.5,292.59259259259255,24,311.1111111111111,24C329.6296296296296,24,337.037037037037,-3.708333333333333,355.55555555555554,-1C374.0740740740741,1.708333333333333,381.48148148148147,37.833333333333336,400,37C418.51851851851853,36.166666666666664,425.9259259259259,-6.041666666666667,444.44444444444446,-5C462.962962962963,-3.958333333333333,470.3703703703704,39.916666666666664,488.88888888888886,42C507.40740740740733,44.083333333333336,514.8148148148148,2.9166666666666665,533.3333333333333,5C551.8518518518517,7.083333333333334,559.2592592592592,53.25,577.7777777777777,52C596.2962962962962,50.75,603.7037037037037,0.875,622.2222222222222,-1C640.7407407407406,-2.875,648.1481481481482,42.583333333333336,666.6666666666666,43C685.1851851851851,43.416666666666664,692.5925925925926,-0.6666666666666665,711.1111111111111,1C729.6296296296296,2.6666666666666665,737.0370370370371,49.958333333333336,755.5555555555555,51C774.074074074074,52.041666666666664,790.7407407407408,15.375,800,6" transform="matrix(1,0,0,1,0,60)"></path><path d="M10,10C17.175925925925924,10.833333333333334,28.00925925925926,17.333333333333332,44.44444444444444,14C60.879629629629626,10.666666666666668,70.37037037037037,-9.958333333333332,88.88888888888889,-6C107.4074074074074,-2.041666666666667,114.8148148148148,36.75,133.33333333333331,33C151.85185185185185,29.25,159.25925925925924,-24.625,177.77777777777777,-24C196.2962962962963,-23.375,203.70370370370372,31.208333333333332,222.22222222222223,36C240.74074074074073,40.791666666666664,248.14814814814812,1.5,266.66666666666663,-1C285.18518518518516,-3.5,292.59259259259255,24,311.1111111111111,24C329.6296296296296,24,337.037037037037,-3.708333333333333,355.55555555555554,-1C374.0740740740741,1.708333333333333,381.48148148148147,37.833333333333336,400,37C418.51851851851853,36.166666666666664,425.9259259259259,-6.041666666666667,444.44444444444446,-5C462.962962962963,-3.958333333333333,470.3703703703704,39.916666666666664,488.88888888888886,42C507.40740740740733,44.083333333333336,514.8148148148148,2.9166666666666665,533.3333333333333,5C551.8518518518517,7.083333333333334,559.2592592592592,53.25,577.7777777777777,52C596.2962962962962,50.75,603.7037037037037,0.875,622.2222222222222,-1C640.7407407407406,-2.875,648.1481481481482,42.583333333333336,666.6666666666666,43C685.1851851851851,43.416666666666664,692.5925925925926,-0.6666666666666665,711.1111111111111,1C729.6296296296296,2.6666666666666665,737.0370370370371,49.958333333333336,755.5555555555555,51C774.074074074074,52.041666666666664,790.7407407407408,15.375,800,6" transform="matrix(1,0,0,1,0,50)"></path><path d="M10,10C17.175925925925924,10.833333333333334,28.00925925925926,17.333333333333332,44.44444444444444,14C60.879629629629626,10.666666666666668,70.37037037037037,-9.958333333333332,88.88888888888889,-6C107.4074074074074,-2.041666666666667,114.8148148148148,36.75,133.33333333333331,33C151.85185185185185,29.25,159.25925925925924,-24.625,177.77777777777777,-24C196.2962962962963,-23.375,203.70370370370372,31.208333333333332,222.22222222222223,36C240.74074074074073,40.791666666666664,248.14814814814812,1.5,266.66666666666663,-1C285.18518518518516,-3.5,292.59259259259255,24,311.1111111111111,24C329.6296296296296,24,337.037037037037,-3.708333333333333,355.55555555555554,-1C374.0740740740741,1.708333333333333,381.48148148148147,37.833333333333336,400,37C418.51851851851853,36.166666666666664,425.9259259259259,-6.041666666666667,444.44444444444446,-5C462.962962962963,-3.958333333333333,470.3703703703704,39.916666666666664,488.88888888888886,42C507.40740740740733,44.083333333333336,514.8148148148148,2.9166666666666665,533.3333333333333,5C551.8518518518517,7.083333333333334,559.2592592592592,53.25,577.7777777777777,52C596.2962962962962,50.75,603.7037037037037,0.875,622.2222222222222,-1C640.7407407407406,-2.875,648.1481481481482,42.583333333333336,666.6666666666666,43C685.1851851851851,43.416666666666664,692.5925925925926,-0.6666666666666665,711.1111111111111,1C729.6296296296296,2.6666666666666665,737.0370370370371,49.958333333333336,755.5555555555555,51C774.074074074074,52.041666666666664,790.7407407407408,15.375,800,6" transform="matrix(1,0,0,1,0,40)"></path><path d="M10,10C17.175925925925924,10.833333333333334,28.00925925925926,17.333333333333332,44.44444444444444,14C60.879629629629626,10.666666666666668,70.37037037037037,-9.958333333333332,88.88888888888889,-6C107.4074074074074,-2.041666666666667,114.8148148148148,36.75,133.33333333333331,33C151.85185185185185,29.25,159.25925925925924,-24.625,177.77777777777777,-24C196.2962962962963,-23.375,203.70370370370372,31.208333333333332,222.22222222222223,36C240.74074074074073,40.791666666666664,248.14814814814812,1.5,266.66666666666663,-1C285.18518518518516,-3.5,292.59259259259255,24,311.1111111111111,24C329.6296296296296,24,337.037037037037,-3.708333333333333,355.55555555555554,-1C374.0740740740741,1.708333333333333,381.48148148148147,37.833333333333336,400,37C418.51851851851853,36.166666666666664,425.9259259259259,-6.041666666666667,444.44444444444446,-5C462.962962962963,-3.958333333333333,470.3703703703704,39.916666666666664,488.88888888888886,42C507.40740740740733,44.083333333333336,514.8148148148148,2.9166666666666665,533.3333333333333,5C551.8518518518517,7.083333333333334,559.2592592592592,53.25,577.7777777777777,52C596.2962962962962,50.75,603.7037037037037,0.875,622.2222222222222,-1C640.7407407407406,-2.875,648.1481481481482,42.583333333333336,666.6666666666666,43C685.1851851851851,43.416666666666664,692.5925925925926,-0.6666666666666665,711.1111111111111,1C729.6296296296296,2.6666666666666665,737.0370370370371,49.958333333333336,755.5555555555555,51C774.074074074074,52.041666666666664,790.7407407407408,15.375,800,6" transform="matrix(1,0,0,1,0,30)"></path><path d="M10,10C17.175925925925924,10.833333333333334,28.00925925925926,17.333333333333332,44.44444444444444,14C60.879629629629626,10.666666666666668,70.37037037037037,-9.958333333333332,88.88888888888889,-6C107.4074074074074,-2.041666666666667,114.8148148148148,36.75,133.33333333333331,33C151.85185185185185,29.25,159.25925925925924,-24.625,177.77777777777777,-24C196.2962962962963,-23.375,203.70370370370372,31.208333333333332,222.22222222222223,36C240.74074074074073,40.791666666666664,248.14814814814812,1.5,266.66666666666663,-1C285.18518518518516,-3.5,292.59259259259255,24,311.1111111111111,24C329.6296296296296,24,337.037037037037,-3.708333333333333,355.55555555555554,-1C374.0740740740741,1.708333333333333,381.48148148148147,37.833333333333336,400,37C418.51851851851853,36.166666666666664,425.9259259259259,-6.041666666666667,444.44444444444446,-5C462.962962962963,-3.958333333333333,470.3703703703704,39.916666666666664,488.88888888888886,42C507.40740740740733,44.083333333333336,514.8148148148148,2.9166666666666665,533.3333333333333,5C551.8518518518517,7.083333333333334,559.2592592592592,53.25,577.7777777777777,52C596.2962962962962,50.75,603.7037037037037,0.875,622.2222222222222,-1C640.7407407407406,-2.875,648.1481481481482,42.583333333333336,666.6666666666666,43C685.1851851851851,43.416666666666664,692.5925925925926,-0.6666666666666665,711.1111111111111,1C729.6296296296296,2.6666666666666665,737.0370370370371,49.958333333333336,755.5555555555555,51C774.074074074074,52.041666666666664,790.7407407407408,15.375,800,6" transform="matrix(1,0,0,1,0,20)"></path><path d="M10,10C17.175925925925924,10.833333333333334,28.00925925925926,17.333333333333332,44.44444444444444,14C60.879629629629626,10.666666666666668,70.37037037037037,-9.958333333333332,88.88888888888889,-6C107.4074074074074,-2.041666666666667,114.8148148148148,36.75,133.33333333333331,33C151.85185185185185,29.25,159.25925925925924,-24.625,177.77777777777777,-24C196.2962962962963,-23.375,203.70370370370372,31.208333333333332,222.22222222222223,36C240.74074074074073,40.791666666666664,248.14814814814812,1.5,266.66666666666663,-1C285.18518518518516,-3.5,292.59259259259255,24,311.1111111111111,24C329.6296296296296,24,337.037037037037,-3.708333333333333,355.55555555555554,-1C374.0740740740741,1.708333333333333,381.48148148148147,37.833333333333336,400,37C418.51851851851853,36.166666666666664,425.9259259259259,-6.041666666666667,444.44444444444446,-5C462.962962962963,-3.958333333333333,470.3703703703704,39.916666666666664,488.88888888888886,42C507.40740740740733,44.083333333333336,514.8148148148148,2.9166666666666665,533.3333333333333,5C551.8518518518517,7.083333333333334,559.2592592592592,53.25,577.7777777777777,52C596.2962962962962,50.75,603.7037037037037,0.875,622.2222222222222,-1C640.7407407407406,-2.875,648.1481481481482,42.583333333333336,666.6666666666666,43C685.1851851851851,43.416666666666664,692.5925925925926,-0.6666666666666665,711.1111111111111,1C729.6296296296296,2.6666666666666665,737.0370370370371,49.958333333333336,755.5555555555555,51C774.074074074074,52.041666666666664,790.7407407407408,15.375,800,6" transform="matrix(1,0,0,1,0,10)"></path></g></svg>