<svg xmlns="http://www.w3.org/2000/svg" version="1.1" xmlns:xlink="http://www.w3.org/1999/xlink" xmlns:svgjs="http://svgjs.dev/svgjs" viewBox="0 0 800 800" opacity="1"><defs><linearGradient gradientTransform="rotate(270)" x1="50%" y1="0%" x2="50%" y2="100%" id="sssquiggly-grad"><stop stop-color="#00ccffff" stop-opacity="1" offset="0%"></stop><stop stop-color="#FF00E6" stop-opacity="1" offset="100%"></stop></linearGradient></defs><g stroke-width="0.5" stroke="#fafafaff" fill="none" stroke-linecap="round" transform="matrix(1,0,0,1,-5,152.9002628326416)"><path d="M10,10C17.175925925925924,11.666666666666666,28.00925925925926,23,44.44444444444444,18C60.879629629629626,13,70.37037037037037,-18.375,88.88888888888889,-14C107.4074074074074,-9.625,114.8148148148148,41.083333333333336,133.33333333333331,39C151.85185185185185,36.916666666666664,159.25925925925924,-23.791666666666668,177.77777777777777,-24C196.2962962962963,-24.208333333333332,203.70370370370372,35.5,222.22222222222223,38C240.74074074074073,40.5,248.14814814814812,-13.458333333333334,266.66666666666663,-12C285.18518518518516,-10.541666666666666,292.59259259259255,41.25,311.1111111111111,45C329.6296296296296,48.75,337.037037037037,5.791666666666667,355.55555555555554,6C374.0740740740741,6.208333333333333,381.48148148148147,46.625,400,46C418.51851851851853,45.375,425.9259259259259,1.9583333333333333,444.44444444444446,3C462.962962962963,4.041666666666667,470.3703703703704,53.291666666666664,488.88888888888886,51C507.40740740740733,48.708333333333336,514.8148148148148,-7.166666666666667,533.3333333333333,-8C551.8518518518517,-8.833333333333334,559.2592592592592,45.541666666666664,577.7777777777777,47C596.2962962962962,48.458333333333336,603.7037037037037,-1.625,622.2222222222222,-1C640.7407407407406,-0.375,648.1481481481482,47.708333333333336,666.6666666666666,50C685.1851851851851,52.291666666666664,692.5925925925926,8.333333333333334,711.1111111111111,10C729.6296296296296,11.666666666666666,737.0370370370371,55.083333333333336,755.5555555555555,58C774.074074074074,60.916666666666664,790.7407407407408,31.083333333333336,800,24"></path><path d="M10,10C17.175925925925924,11.666666666666666,28.00925925925926,23,44.44444444444444,18C60.879629629629626,13,70.37037037037037,-18.375,88.88888888888889,-14C107.4074074074074,-9.625,114.8148148148148,41.083333333333336,133.33333333333331,39C151.85185185185185,36.916666666666664,159.25925925925924,-23.791666666666668,177.77777777777777,-24C196.2962962962963,-24.208333333333332,203.70370370370372,35.5,222.22222222222223,38C240.74074074074073,40.5,248.14814814814812,-13.458333333333334,266.66666666666663,-12C285.18518518518516,-10.541666666666666,292.59259259259255,41.25,311.1111111111111,45C329.6296296296296,48.75,337.037037037037,5.791666666666667,355.55555555555554,6C374.0740740740741,6.208333333333333,381.48148148148147,46.625,400,46C418.51851851851853,45.375,425.9259259259259,1.9583333333333333,444.44444444444446,3C462.962962962963,4.041666666666667,470.3703703703704,53.291666666666664,488.88888888888886,51C507.40740740740733,48.708333333333336,514.8148148148148,-7.166666666666667,533.3333333333333,-8C551.8518518518517,-8.833333333333334,559.2592592592592,45.541666666666664,577.7777777777777,47C596.2962962962962,48.458333333333336,603.7037037037037,-1.625,622.2222222222222,-1C640.7407407407406,-0.375,648.1481481481482,47.708333333333336,666.6666666666666,50C685.1851851851851,52.291666666666664,692.5925925925926,8.333333333333334,711.1111111111111,10C729.6296296296296,11.666666666666666,737.0370370370371,55.083333333333336,755.5555555555555,58C774.074074074074,60.916666666666664,790.7407407407408,31.083333333333336,800,24" transform="matrix(1,0,0,1,0,460)"></path><path d="M10,10C17.175925925925924,11.666666666666666,28.00925925925926,23,44.44444444444444,18C60.879629629629626,13,70.37037037037037,-18.375,88.88888888888889,-14C107.4074074074074,-9.625,114.8148148148148,41.083333333333336,133.33333333333331,39C151.85185185185185,36.916666666666664,159.25925925925924,-23.791666666666668,177.77777777777777,-24C196.2962962962963,-24.208333333333332,203.70370370370372,35.5,222.22222222222223,38C240.74074074074073,40.5,248.14814814814812,-13.458333333333334,266.66666666666663,-12C285.18518518518516,-10.541666666666666,292.59259259259255,41.25,311.1111111111111,45C329.6296296296296,48.75,337.037037037037,5.791666666666667,355.55555555555554,6C374.0740740740741,6.208333333333333,381.48148148148147,46.625,400,46C418.51851851851853,45.375,425.9259259259259,1.9583333333333333,444.44444444444446,3C462.962962962963,4.041666666666667,470.3703703703704,53.291666666666664,488.88888888888886,51C507.40740740740733,48.708333333333336,514.8148148148148,-7.166666666666667,533.3333333333333,-8C551.8518518518517,-8.833333333333334,559.2592592592592,45.541666666666664,577.7777777777777,47C596.2962962962962,48.458333333333336,603.7037037037037,-1.625,622.2222222222222,-1C640.7407407407406,-0.375,648.1481481481482,47.708333333333336,666.6666666666666,50C685.1851851851851,52.291666666666664,692.5925925925926,8.333333333333334,711.1111111111111,10C729.6296296296296,11.666666666666666,737.0370370370371,55.083333333333336,755.5555555555555,58C774.074074074074,60.916666666666664,790.7407407407408,31.083333333333336,800,24" transform="matrix(1,0,0,1,0,450)"></path><path d="M10,10C17.175925925925924,11.666666666666666,28.00925925925926,23,44.44444444444444,18C60.879629629629626,13,70.37037037037037,-18.375,88.88888888888889,-14C107.4074074074074,-9.625,114.8148148148148,41.083333333333336,133.33333333333331,39C151.85185185185185,36.916666666666664,159.25925925925924,-23.791666666666668,177.77777777777777,-24C196.2962962962963,-24.208333333333332,203.70370370370372,35.5,222.22222222222223,38C240.74074074074073,40.5,248.14814814814812,-13.458333333333334,266.66666666666663,-12C285.18518518518516,-10.541666666666666,292.59259259259255,41.25,311.1111111111111,45C329.6296296296296,48.75,337.037037037037,5.791666666666667,355.55555555555554,6C374.0740740740741,6.208333333333333,381.48148148148147,46.625,400,46C418.51851851851853,45.375,425.9259259259259,1.9583333333333333,444.44444444444446,3C462.962962962963,4.041666666666667,470.3703703703704,53.291666666666664,488.88888888888886,51C507.40740740740733,48.708333333333336,514.8148148148148,-7.166666666666667,533.3333333333333,-8C551.8518518518517,-8.833333333333334,559.2592592592592,45.541666666666664,577.7777777777777,47C596.2962962962962,48.458333333333336,603.7037037037037,-1.625,622.2222222222222,-1C640.7407407407406,-0.375,648.1481481481482,47.708333333333336,666.6666666666666,50C685.1851851851851,52.291666666666664,692.5925925925926,8.333333333333334,711.1111111111111,10C729.6296296296296,11.666666666666666,737.0370370370371,55.083333333333336,755.5555555555555,58C774.074074074074,60.916666666666664,790.7407407407408,31.083333333333336,800,24" transform="matrix(1,0,0,1,0,440)"></path><path d="M10,10C17.175925925925924,11.666666666666666,28.00925925925926,23,44.44444444444444,18C60.879629629629626,13,70.37037037037037,-18.375,88.88888888888889,-14C107.4074074074074,-9.625,114.8148148148148,41.083333333333336,133.33333333333331,39C151.85185185185185,36.916666666666664,159.25925925925924,-23.791666666666668,177.77777777777777,-24C196.2962962962963,-24.208333333333332,203.70370370370372,35.5,222.22222222222223,38C240.74074074074073,40.5,248.14814814814812,-13.458333333333334,266.66666666666663,-12C285.18518518518516,-10.541666666666666,292.59259259259255,41.25,311.1111111111111,45C329.6296296296296,48.75,337.037037037037,5.791666666666667,355.55555555555554,6C374.0740740740741,6.208333333333333,381.48148148148147,46.625,400,46C418.51851851851853,45.375,425.9259259259259,1.9583333333333333,444.44444444444446,3C462.962962962963,4.041666666666667,470.3703703703704,53.291666666666664,488.88888888888886,51C507.40740740740733,48.708333333333336,514.8148148148148,-7.166666666666667,533.3333333333333,-8C551.8518518518517,-8.833333333333334,559.2592592592592,45.541666666666664,577.7777777777777,47C596.2962962962962,48.458333333333336,603.7037037037037,-1.625,622.2222222222222,-1C640.7407407407406,-0.375,648.1481481481482,47.708333333333336,666.6666666666666,50C685.1851851851851,52.291666666666664,692.5925925925926,8.333333333333334,711.1111111111111,10C729.6296296296296,11.666666666666666,737.0370370370371,55.083333333333336,755.5555555555555,58C774.074074074074,60.916666666666664,790.7407407407408,31.083333333333336,800,24" transform="matrix(1,0,0,1,0,430)"></path><path d="M10,10C17.175925925925924,11.666666666666666,28.00925925925926,23,44.44444444444444,18C60.879629629629626,13,70.37037037037037,-18.375,88.88888888888889,-14C107.4074074074074,-9.625,114.8148148148148,41.083333333333336,133.33333333333331,39C151.85185185185185,36.916666666666664,159.25925925925924,-23.791666666666668,177.77777777777777,-24C196.2962962962963,-24.208333333333332,203.70370370370372,35.5,222.22222222222223,38C240.74074074074073,40.5,248.14814814814812,-13.458333333333334,266.66666666666663,-12C285.18518518518516,-10.541666666666666,292.59259259259255,41.25,311.1111111111111,45C329.6296296296296,48.75,337.037037037037,5.791666666666667,355.55555555555554,6C374.0740740740741,6.208333333333333,381.48148148148147,46.625,400,46C418.51851851851853,45.375,425.9259259259259,1.9583333333333333,444.44444444444446,3C462.962962962963,4.041666666666667,470.3703703703704,53.291666666666664,488.88888888888886,51C507.40740740740733,48.708333333333336,514.8148148148148,-7.166666666666667,533.3333333333333,-8C551.8518518518517,-8.833333333333334,559.2592592592592,45.541666666666664,577.7777777777777,47C596.2962962962962,48.458333333333336,603.7037037037037,-1.625,622.2222222222222,-1C640.7407407407406,-0.375,648.1481481481482,47.708333333333336,666.6666666666666,50C685.1851851851851,52.291666666666664,692.5925925925926,8.333333333333334,711.1111111111111,10C729.6296296296296,11.666666666666666,737.0370370370371,55.083333333333336,755.5555555555555,58C774.074074074074,60.916666666666664,790.7407407407408,31.083333333333336,800,24" transform="matrix(1,0,0,1,0,420)"></path><path d="M10,10C17.175925925925924,11.666666666666666,28.00925925925926,23,44.44444444444444,18C60.879629629629626,13,70.37037037037037,-18.375,88.88888888888889,-14C107.4074074074074,-9.625,114.8148148148148,41.083333333333336,133.33333333333331,39C151.85185185185185,36.916666666666664,159.25925925925924,-23.791666666666668,177.77777777777777,-24C196.2962962962963,-24.208333333333332,203.70370370370372,35.5,222.22222222222223,38C240.74074074074073,40.5,248.14814814814812,-13.458333333333334,266.66666666666663,-12C285.18518518518516,-10.541666666666666,292.59259259259255,41.25,311.1111111111111,45C329.6296296296296,48.75,337.037037037037,5.791666666666667,355.55555555555554,6C374.0740740740741,6.208333333333333,381.48148148148147,46.625,400,46C418.51851851851853,45.375,425.9259259259259,1.9583333333333333,444.44444444444446,3C462.962962962963,4.041666666666667,470.3703703703704,53.291666666666664,488.88888888888886,51C507.40740740740733,48.708333333333336,514.8148148148148,-7.166666666666667,533.3333333333333,-8C551.8518518518517,-8.833333333333334,559.2592592592592,45.541666666666664,577.7777777777777,47C596.2962962962962,48.458333333333336,603.7037037037037,-1.625,622.2222222222222,-1C640.7407407407406,-0.375,648.1481481481482,47.708333333333336,666.6666666666666,50C685.1851851851851,52.291666666666664,692.5925925925926,8.333333333333334,711.1111111111111,10C729.6296296296296,11.666666666666666,737.0370370370371,55.083333333333336,755.5555555555555,58C774.074074074074,60.916666666666664,790.7407407407408,31.083333333333336,800,24" transform="matrix(1,0,0,1,0,410)"></path><path d="M10,10C17.175925925925924,11.666666666666666,28.00925925925926,23,44.44444444444444,18C60.879629629629626,13,70.37037037037037,-18.375,88.88888888888889,-14C107.4074074074074,-9.625,114.8148148148148,41.083333333333336,133.33333333333331,39C151.85185185185185,36.916666666666664,159.25925925925924,-23.791666666666668,177.77777777777777,-24C196.2962962962963,-24.208333333333332,203.70370370370372,35.5,222.22222222222223,38C240.74074074074073,40.5,248.14814814814812,-13.458333333333334,266.66666666666663,-12C285.18518518518516,-10.541666666666666,292.59259259259255,41.25,311.1111111111111,45C329.6296296296296,48.75,337.037037037037,5.791666666666667,355.55555555555554,6C374.0740740740741,6.208333333333333,381.48148148148147,46.625,400,46C418.51851851851853,45.375,425.9259259259259,1.9583333333333333,444.44444444444446,3C462.962962962963,4.041666666666667,470.3703703703704,53.291666666666664,488.88888888888886,51C507.40740740740733,48.708333333333336,514.8148148148148,-7.166666666666667,533.3333333333333,-8C551.8518518518517,-8.833333333333334,559.2592592592592,45.541666666666664,577.7777777777777,47C596.2962962962962,48.458333333333336,603.7037037037037,-1.625,622.2222222222222,-1C640.7407407407406,-0.375,648.1481481481482,47.708333333333336,666.6666666666666,50C685.1851851851851,52.291666666666664,692.5925925925926,8.333333333333334,711.1111111111111,10C729.6296296296296,11.666666666666666,737.0370370370371,55.083333333333336,755.5555555555555,58C774.074074074074,60.916666666666664,790.7407407407408,31.083333333333336,800,24" transform="matrix(1,0,0,1,0,400)"></path><path d="M10,10C17.175925925925924,11.666666666666666,28.00925925925926,23,44.44444444444444,18C60.879629629629626,13,70.37037037037037,-18.375,88.88888888888889,-14C107.4074074074074,-9.625,114.8148148148148,41.083333333333336,133.33333333333331,39C151.85185185185185,36.916666666666664,159.25925925925924,-23.791666666666668,177.77777777777777,-24C196.2962962962963,-24.208333333333332,203.70370370370372,35.5,222.22222222222223,38C240.74074074074073,40.5,248.14814814814812,-13.458333333333334,266.66666666666663,-12C285.18518518518516,-10.541666666666666,292.59259259259255,41.25,311.1111111111111,45C329.6296296296296,48.75,337.037037037037,5.791666666666667,355.55555555555554,6C374.0740740740741,6.208333333333333,381.48148148148147,46.625,400,46C418.51851851851853,45.375,425.9259259259259,1.9583333333333333,444.44444444444446,3C462.962962962963,4.041666666666667,470.3703703703704,53.291666666666664,488.88888888888886,51C507.40740740740733,48.708333333333336,514.8148148148148,-7.166666666666667,533.3333333333333,-8C551.8518518518517,-8.833333333333334,559.2592592592592,45.541666666666664,577.7777777777777,47C596.2962962962962,48.458333333333336,603.7037037037037,-1.625,622.2222222222222,-1C640.7407407407406,-0.375,648.1481481481482,47.708333333333336,666.6666666666666,50C685.1851851851851,52.291666666666664,692.5925925925926,8.333333333333334,711.1111111111111,10C729.6296296296296,11.666666666666666,737.0370370370371,55.083333333333336,755.5555555555555,58C774.074074074074,60.916666666666664,790.7407407407408,31.083333333333336,800,24" transform="matrix(1,0,0,1,0,390)"></path><path d="M10,10C17.175925925925924,11.666666666666666,28.00925925925926,23,44.44444444444444,18C60.879629629629626,13,70.37037037037037,-18.375,88.88888888888889,-14C107.4074074074074,-9.625,114.8148148148148,41.083333333333336,133.33333333333331,39C151.85185185185185,36.916666666666664,159.25925925925924,-23.791666666666668,177.77777777777777,-24C196.2962962962963,-24.208333333333332,203.70370370370372,35.5,222.22222222222223,38C240.74074074074073,40.5,248.14814814814812,-13.458333333333334,266.66666666666663,-12C285.18518518518516,-10.541666666666666,292.59259259259255,41.25,311.1111111111111,45C329.6296296296296,48.75,337.037037037037,5.791666666666667,355.55555555555554,6C374.0740740740741,6.208333333333333,381.48148148148147,46.625,400,46C418.51851851851853,45.375,425.9259259259259,1.9583333333333333,444.44444444444446,3C462.962962962963,4.041666666666667,470.3703703703704,53.291666666666664,488.88888888888886,51C507.40740740740733,48.708333333333336,514.8148148148148,-7.166666666666667,533.3333333333333,-8C551.8518518518517,-8.833333333333334,559.2592592592592,45.541666666666664,577.7777777777777,47C596.2962962962962,48.458333333333336,603.7037037037037,-1.625,622.2222222222222,-1C640.7407407407406,-0.375,648.1481481481482,47.708333333333336,666.6666666666666,50C685.1851851851851,52.291666666666664,692.5925925925926,8.333333333333334,711.1111111111111,10C729.6296296296296,11.666666666666666,737.0370370370371,55.083333333333336,755.5555555555555,58C774.074074074074,60.916666666666664,790.7407407407408,31.083333333333336,800,24" transform="matrix(1,0,0,1,0,380)"></path><path d="M10,10C17.175925925925924,11.666666666666666,28.00925925925926,23,44.44444444444444,18C60.879629629629626,13,70.37037037037037,-18.375,88.88888888888889,-14C107.4074074074074,-9.625,114.8148148148148,41.083333333333336,133.33333333333331,39C151.85185185185185,36.916666666666664,159.25925925925924,-23.791666666666668,177.77777777777777,-24C196.2962962962963,-24.208333333333332,203.70370370370372,35.5,222.22222222222223,38C240.74074074074073,40.5,248.14814814814812,-13.458333333333334,266.66666666666663,-12C285.18518518518516,-10.541666666666666,292.59259259259255,41.25,311.1111111111111,45C329.6296296296296,48.75,337.037037037037,5.791666666666667,355.55555555555554,6C374.0740740740741,6.208333333333333,381.48148148148147,46.625,400,46C418.51851851851853,45.375,425.9259259259259,1.9583333333333333,444.44444444444446,3C462.962962962963,4.041666666666667,470.3703703703704,53.291666666666664,488.88888888888886,51C507.40740740740733,48.708333333333336,514.8148148148148,-7.166666666666667,533.3333333333333,-8C551.8518518518517,-8.833333333333334,559.2592592592592,45.541666666666664,577.7777777777777,47C596.2962962962962,48.458333333333336,603.7037037037037,-1.625,622.2222222222222,-1C640.7407407407406,-0.375,648.1481481481482,47.708333333333336,666.6666666666666,50C685.1851851851851,52.291666666666664,692.5925925925926,8.333333333333334,711.1111111111111,10C729.6296296296296,11.666666666666666,737.0370370370371,55.083333333333336,755.5555555555555,58C774.074074074074,60.916666666666664,790.7407407407408,31.083333333333336,800,24" transform="matrix(1,0,0,1,0,370)"></path><path d="M10,10C17.175925925925924,11.666666666666666,28.00925925925926,23,44.44444444444444,18C60.879629629629626,13,70.37037037037037,-18.375,88.88888888888889,-14C107.4074074074074,-9.625,114.8148148148148,41.083333333333336,133.33333333333331,39C151.85185185185185,36.916666666666664,159.25925925925924,-23.791666666666668,177.77777777777777,-24C196.2962962962963,-24.208333333333332,203.70370370370372,35.5,222.22222222222223,38C240.74074074074073,40.5,248.14814814814812,-13.458333333333334,266.66666666666663,-12C285.18518518518516,-10.541666666666666,292.59259259259255,41.25,311.1111111111111,45C329.6296296296296,48.75,337.037037037037,5.791666666666667,355.55555555555554,6C374.0740740740741,6.208333333333333,381.48148148148147,46.625,400,46C418.51851851851853,45.375,425.9259259259259,1.9583333333333333,444.44444444444446,3C462.962962962963,4.041666666666667,470.3703703703704,53.291666666666664,488.88888888888886,51C507.40740740740733,48.708333333333336,514.8148148148148,-7.166666666666667,533.3333333333333,-8C551.8518518518517,-8.833333333333334,559.2592592592592,45.541666666666664,577.7777777777777,47C596.2962962962962,48.458333333333336,603.7037037037037,-1.625,622.2222222222222,-1C640.7407407407406,-0.375,648.1481481481482,47.708333333333336,666.6666666666666,50C685.1851851851851,52.291666666666664,692.5925925925926,8.333333333333334,711.1111111111111,10C729.6296296296296,11.666666666666666,737.0370370370371,55.083333333333336,755.5555555555555,58C774.074074074074,60.916666666666664,790.7407407407408,31.083333333333336,800,24" transform="matrix(1,0,0,1,0,360)"></path><path d="M10,10C17.175925925925924,11.666666666666666,28.00925925925926,23,44.44444444444444,18C60.879629629629626,13,70.37037037037037,-18.375,88.88888888888889,-14C107.4074074074074,-9.625,114.8148148148148,41.083333333333336,133.33333333333331,39C151.85185185185185,36.916666666666664,159.25925925925924,-23.791666666666668,177.77777777777777,-24C196.2962962962963,-24.208333333333332,203.70370370370372,35.5,222.22222222222223,38C240.74074074074073,40.5,248.14814814814812,-13.458333333333334,266.66666666666663,-12C285.18518518518516,-10.541666666666666,292.59259259259255,41.25,311.1111111111111,45C329.6296296296296,48.75,337.037037037037,5.791666666666667,355.55555555555554,6C374.0740740740741,6.208333333333333,381.48148148148147,46.625,400,46C418.51851851851853,45.375,425.9259259259259,1.9583333333333333,444.44444444444446,3C462.962962962963,4.041666666666667,470.3703703703704,53.291666666666664,488.88888888888886,51C507.40740740740733,48.708333333333336,514.8148148148148,-7.166666666666667,533.3333333333333,-8C551.8518518518517,-8.833333333333334,559.2592592592592,45.541666666666664,577.7777777777777,47C596.2962962962962,48.458333333333336,603.7037037037037,-1.625,622.2222222222222,-1C640.7407407407406,-0.375,648.1481481481482,47.708333333333336,666.6666666666666,50C685.1851851851851,52.291666666666664,692.5925925925926,8.333333333333334,711.1111111111111,10C729.6296296296296,11.666666666666666,737.0370370370371,55.083333333333336,755.5555555555555,58C774.074074074074,60.916666666666664,790.7407407407408,31.083333333333336,800,24" transform="matrix(1,0,0,1,0,350)"></path><path d="M10,10C17.175925925925924,11.666666666666666,28.00925925925926,23,44.44444444444444,18C60.879629629629626,13,70.37037037037037,-18.375,88.88888888888889,-14C107.4074074074074,-9.625,114.8148148148148,41.083333333333336,133.33333333333331,39C151.85185185185185,36.916666666666664,159.25925925925924,-23.791666666666668,177.77777777777777,-24C196.2962962962963,-24.208333333333332,203.70370370370372,35.5,222.22222222222223,38C240.74074074074073,40.5,248.14814814814812,-13.458333333333334,266.66666666666663,-12C285.18518518518516,-10.541666666666666,292.59259259259255,41.25,311.1111111111111,45C329.6296296296296,48.75,337.037037037037,5.791666666666667,355.55555555555554,6C374.0740740740741,6.208333333333333,381.48148148148147,46.625,400,46C418.51851851851853,45.375,425.9259259259259,1.9583333333333333,444.44444444444446,3C462.962962962963,4.041666666666667,470.3703703703704,53.291666666666664,488.88888888888886,51C507.40740740740733,48.708333333333336,514.8148148148148,-7.166666666666667,533.3333333333333,-8C551.8518518518517,-8.833333333333334,559.2592592592592,45.541666666666664,577.7777777777777,47C596.2962962962962,48.458333333333336,603.7037037037037,-1.625,622.2222222222222,-1C640.7407407407406,-0.375,648.1481481481482,47.708333333333336,666.6666666666666,50C685.1851851851851,52.291666666666664,692.5925925925926,8.333333333333334,711.1111111111111,10C729.6296296296296,11.666666666666666,737.0370370370371,55.083333333333336,755.5555555555555,58C774.074074074074,60.916666666666664,790.7407407407408,31.083333333333336,800,24" transform="matrix(1,0,0,1,0,340)"></path><path d="M10,10C17.175925925925924,11.666666666666666,28.00925925925926,23,44.44444444444444,18C60.879629629629626,13,70.37037037037037,-18.375,88.88888888888889,-14C107.4074074074074,-9.625,114.8148148148148,41.083333333333336,133.33333333333331,39C151.85185185185185,36.916666666666664,159.25925925925924,-23.791666666666668,177.77777777777777,-24C196.2962962962963,-24.208333333333332,203.70370370370372,35.5,222.22222222222223,38C240.74074074074073,40.5,248.14814814814812,-13.458333333333334,266.66666666666663,-12C285.18518518518516,-10.541666666666666,292.59259259259255,41.25,311.1111111111111,45C329.6296296296296,48.75,337.037037037037,5.791666666666667,355.55555555555554,6C374.0740740740741,6.208333333333333,381.48148148148147,46.625,400,46C418.51851851851853,45.375,425.9259259259259,1.9583333333333333,444.44444444444446,3C462.962962962963,4.041666666666667,470.3703703703704,53.291666666666664,488.88888888888886,51C507.40740740740733,48.708333333333336,514.8148148148148,-7.166666666666667,533.3333333333333,-8C551.8518518518517,-8.833333333333334,559.2592592592592,45.541666666666664,577.7777777777777,47C596.2962962962962,48.458333333333336,603.7037037037037,-1.625,622.2222222222222,-1C640.7407407407406,-0.375,648.1481481481482,47.708333333333336,666.6666666666666,50C685.1851851851851,52.291666666666664,692.5925925925926,8.333333333333334,711.1111111111111,10C729.6296296296296,11.666666666666666,737.0370370370371,55.083333333333336,755.5555555555555,58C774.074074074074,60.916666666666664,790.7407407407408,31.083333333333336,800,24" transform="matrix(1,0,0,1,0,330)"></path><path d="M10,10C17.175925925925924,11.666666666666666,28.00925925925926,23,44.44444444444444,18C60.879629629629626,13,70.37037037037037,-18.375,88.88888888888889,-14C107.4074074074074,-9.625,114.8148148148148,41.083333333333336,133.33333333333331,39C151.85185185185185,36.916666666666664,159.25925925925924,-23.791666666666668,177.77777777777777,-24C196.2962962962963,-24.208333333333332,203.70370370370372,35.5,222.22222222222223,38C240.74074074074073,40.5,248.14814814814812,-13.458333333333334,266.66666666666663,-12C285.18518518518516,-10.541666666666666,292.59259259259255,41.25,311.1111111111111,45C329.6296296296296,48.75,337.037037037037,5.791666666666667,355.55555555555554,6C374.0740740740741,6.208333333333333,381.48148148148147,46.625,400,46C418.51851851851853,45.375,425.9259259259259,1.9583333333333333,444.44444444444446,3C462.962962962963,4.041666666666667,470.3703703703704,53.291666666666664,488.88888888888886,51C507.40740740740733,48.708333333333336,514.8148148148148,-7.166666666666667,533.3333333333333,-8C551.8518518518517,-8.833333333333334,559.2592592592592,45.541666666666664,577.7777777777777,47C596.2962962962962,48.458333333333336,603.7037037037037,-1.625,622.2222222222222,-1C640.7407407407406,-0.375,648.1481481481482,47.708333333333336,666.6666666666666,50C685.1851851851851,52.291666666666664,692.5925925925926,8.333333333333334,711.1111111111111,10C729.6296296296296,11.666666666666666,737.0370370370371,55.083333333333336,755.5555555555555,58C774.074074074074,60.916666666666664,790.7407407407408,31.083333333333336,800,24" transform="matrix(1,0,0,1,0,320)"></path><path d="M10,10C17.175925925925924,11.666666666666666,28.00925925925926,23,44.44444444444444,18C60.879629629629626,13,70.37037037037037,-18.375,88.88888888888889,-14C107.4074074074074,-9.625,114.8148148148148,41.083333333333336,133.33333333333331,39C151.85185185185185,36.916666666666664,159.25925925925924,-23.791666666666668,177.77777777777777,-24C196.2962962962963,-24.208333333333332,203.70370370370372,35.5,222.22222222222223,38C240.74074074074073,40.5,248.14814814814812,-13.458333333333334,266.66666666666663,-12C285.18518518518516,-10.541666666666666,292.59259259259255,41.25,311.1111111111111,45C329.6296296296296,48.75,337.037037037037,5.791666666666667,355.55555555555554,6C374.0740740740741,6.208333333333333,381.48148148148147,46.625,400,46C418.51851851851853,45.375,425.9259259259259,1.9583333333333333,444.44444444444446,3C462.962962962963,4.041666666666667,470.3703703703704,53.291666666666664,488.88888888888886,51C507.40740740740733,48.708333333333336,514.8148148148148,-7.166666666666667,533.3333333333333,-8C551.8518518518517,-8.833333333333334,559.2592592592592,45.541666666666664,577.7777777777777,47C596.2962962962962,48.458333333333336,603.7037037037037,-1.625,622.2222222222222,-1C640.7407407407406,-0.375,648.1481481481482,47.708333333333336,666.6666666666666,50C685.1851851851851,52.291666666666664,692.5925925925926,8.333333333333334,711.1111111111111,10C729.6296296296296,11.666666666666666,737.0370370370371,55.083333333333336,755.5555555555555,58C774.074074074074,60.916666666666664,790.7407407407408,31.083333333333336,800,24" transform="matrix(1,0,0,1,0,310)"></path><path d="M10,10C17.175925925925924,11.666666666666666,28.00925925925926,23,44.44444444444444,18C60.879629629629626,13,70.37037037037037,-18.375,88.88888888888889,-14C107.4074074074074,-9.625,114.8148148148148,41.083333333333336,133.33333333333331,39C151.85185185185185,36.916666666666664,159.25925925925924,-23.791666666666668,177.77777777777777,-24C196.2962962962963,-24.208333333333332,203.70370370370372,35.5,222.22222222222223,38C240.74074074074073,40.5,248.14814814814812,-13.458333333333334,266.66666666666663,-12C285.18518518518516,-10.541666666666666,292.59259259259255,41.25,311.1111111111111,45C329.6296296296296,48.75,337.037037037037,5.791666666666667,355.55555555555554,6C374.0740740740741,6.208333333333333,381.48148148148147,46.625,400,46C418.51851851851853,45.375,425.9259259259259,1.9583333333333333,444.44444444444446,3C462.962962962963,4.041666666666667,470.3703703703704,53.291666666666664,488.88888888888886,51C507.40740740740733,48.708333333333336,514.8148148148148,-7.166666666666667,533.3333333333333,-8C551.8518518518517,-8.833333333333334,559.2592592592592,45.541666666666664,577.7777777777777,47C596.2962962962962,48.458333333333336,603.7037037037037,-1.625,622.2222222222222,-1C640.7407407407406,-0.375,648.1481481481482,47.708333333333336,666.6666666666666,50C685.1851851851851,52.291666666666664,692.5925925925926,8.333333333333334,711.1111111111111,10C729.6296296296296,11.666666666666666,737.0370370370371,55.083333333333336,755.5555555555555,58C774.074074074074,60.916666666666664,790.7407407407408,31.083333333333336,800,24" transform="matrix(1,0,0,1,0,300)"></path><path d="M10,10C17.175925925925924,11.666666666666666,28.00925925925926,23,44.44444444444444,18C60.879629629629626,13,70.37037037037037,-18.375,88.88888888888889,-14C107.4074074074074,-9.625,114.8148148148148,41.083333333333336,133.33333333333331,39C151.85185185185185,36.916666666666664,159.25925925925924,-23.791666666666668,177.77777777777777,-24C196.2962962962963,-24.208333333333332,203.70370370370372,35.5,222.22222222222223,38C240.74074074074073,40.5,248.14814814814812,-13.458333333333334,266.66666666666663,-12C285.18518518518516,-10.541666666666666,292.59259259259255,41.25,311.1111111111111,45C329.6296296296296,48.75,337.037037037037,5.791666666666667,355.55555555555554,6C374.0740740740741,6.208333333333333,381.48148148148147,46.625,400,46C418.51851851851853,45.375,425.9259259259259,1.9583333333333333,444.44444444444446,3C462.962962962963,4.041666666666667,470.3703703703704,53.291666666666664,488.88888888888886,51C507.40740740740733,48.708333333333336,514.8148148148148,-7.166666666666667,533.3333333333333,-8C551.8518518518517,-8.833333333333334,559.2592592592592,45.541666666666664,577.7777777777777,47C596.2962962962962,48.458333333333336,603.7037037037037,-1.625,622.2222222222222,-1C640.7407407407406,-0.375,648.1481481481482,47.708333333333336,666.6666666666666,50C685.1851851851851,52.291666666666664,692.5925925925926,8.333333333333334,711.1111111111111,10C729.6296296296296,11.666666666666666,737.0370370370371,55.083333333333336,755.5555555555555,58C774.074074074074,60.916666666666664,790.7407407407408,31.083333333333336,800,24" transform="matrix(1,0,0,1,0,290)"></path><path d="M10,10C17.175925925925924,11.666666666666666,28.00925925925926,23,44.44444444444444,18C60.879629629629626,13,70.37037037037037,-18.375,88.88888888888889,-14C107.4074074074074,-9.625,114.8148148148148,41.083333333333336,133.33333333333331,39C151.85185185185185,36.916666666666664,159.25925925925924,-23.791666666666668,177.77777777777777,-24C196.2962962962963,-24.208333333333332,203.70370370370372,35.5,222.22222222222223,38C240.74074074074073,40.5,248.14814814814812,-13.458333333333334,266.66666666666663,-12C285.18518518518516,-10.541666666666666,292.59259259259255,41.25,311.1111111111111,45C329.6296296296296,48.75,337.037037037037,5.791666666666667,355.55555555555554,6C374.0740740740741,6.208333333333333,381.48148148148147,46.625,400,46C418.51851851851853,45.375,425.9259259259259,1.9583333333333333,444.44444444444446,3C462.962962962963,4.041666666666667,470.3703703703704,53.291666666666664,488.88888888888886,51C507.40740740740733,48.708333333333336,514.8148148148148,-7.166666666666667,533.3333333333333,-8C551.8518518518517,-8.833333333333334,559.2592592592592,45.541666666666664,577.7777777777777,47C596.2962962962962,48.458333333333336,603.7037037037037,-1.625,622.2222222222222,-1C640.7407407407406,-0.375,648.1481481481482,47.708333333333336,666.6666666666666,50C685.1851851851851,52.291666666666664,692.5925925925926,8.333333333333334,711.1111111111111,10C729.6296296296296,11.666666666666666,737.0370370370371,55.083333333333336,755.5555555555555,58C774.074074074074,60.916666666666664,790.7407407407408,31.083333333333336,800,24" transform="matrix(1,0,0,1,0,280)"></path><path d="M10,10C17.175925925925924,11.666666666666666,28.00925925925926,23,44.44444444444444,18C60.879629629629626,13,70.37037037037037,-18.375,88.88888888888889,-14C107.4074074074074,-9.625,114.8148148148148,41.083333333333336,133.33333333333331,39C151.85185185185185,36.916666666666664,159.25925925925924,-23.791666666666668,177.77777777777777,-24C196.2962962962963,-24.208333333333332,203.70370370370372,35.5,222.22222222222223,38C240.74074074074073,40.5,248.14814814814812,-13.458333333333334,266.66666666666663,-12C285.18518518518516,-10.541666666666666,292.59259259259255,41.25,311.1111111111111,45C329.6296296296296,48.75,337.037037037037,5.791666666666667,355.55555555555554,6C374.0740740740741,6.208333333333333,381.48148148148147,46.625,400,46C418.51851851851853,45.375,425.9259259259259,1.9583333333333333,444.44444444444446,3C462.962962962963,4.041666666666667,470.3703703703704,53.291666666666664,488.88888888888886,51C507.40740740740733,48.708333333333336,514.8148148148148,-7.166666666666667,533.3333333333333,-8C551.8518518518517,-8.833333333333334,559.2592592592592,45.541666666666664,577.7777777777777,47C596.2962962962962,48.458333333333336,603.7037037037037,-1.625,622.2222222222222,-1C640.7407407407406,-0.375,648.1481481481482,47.708333333333336,666.6666666666666,50C685.1851851851851,52.291666666666664,692.5925925925926,8.333333333333334,711.1111111111111,10C729.6296296296296,11.666666666666666,737.0370370370371,55.083333333333336,755.5555555555555,58C774.074074074074,60.916666666666664,790.7407407407408,31.083333333333336,800,24" transform="matrix(1,0,0,1,0,270)"></path><path d="M10,10C17.175925925925924,11.666666666666666,28.00925925925926,23,44.44444444444444,18C60.879629629629626,13,70.37037037037037,-18.375,88.88888888888889,-14C107.4074074074074,-9.625,114.8148148148148,41.083333333333336,133.33333333333331,39C151.85185185185185,36.916666666666664,159.25925925925924,-23.791666666666668,177.77777777777777,-24C196.2962962962963,-24.208333333333332,203.70370370370372,35.5,222.22222222222223,38C240.74074074074073,40.5,248.14814814814812,-13.458333333333334,266.66666666666663,-12C285.18518518518516,-10.541666666666666,292.59259259259255,41.25,311.1111111111111,45C329.6296296296296,48.75,337.037037037037,5.791666666666667,355.55555555555554,6C374.0740740740741,6.208333333333333,381.48148148148147,46.625,400,46C418.51851851851853,45.375,425.9259259259259,1.9583333333333333,444.44444444444446,3C462.962962962963,4.041666666666667,470.3703703703704,53.291666666666664,488.88888888888886,51C507.40740740740733,48.708333333333336,514.8148148148148,-7.166666666666667,533.3333333333333,-8C551.8518518518517,-8.833333333333334,559.2592592592592,45.541666666666664,577.7777777777777,47C596.2962962962962,48.458333333333336,603.7037037037037,-1.625,622.2222222222222,-1C640.7407407407406,-0.375,648.1481481481482,47.708333333333336,666.6666666666666,50C685.1851851851851,52.291666666666664,692.5925925925926,8.333333333333334,711.1111111111111,10C729.6296296296296,11.666666666666666,737.0370370370371,55.083333333333336,755.5555555555555,58C774.074074074074,60.916666666666664,790.7407407407408,31.083333333333336,800,24" transform="matrix(1,0,0,1,0,260)"></path><path d="M10,10C17.175925925925924,11.666666666666666,28.00925925925926,23,44.44444444444444,18C60.879629629629626,13,70.37037037037037,-18.375,88.88888888888889,-14C107.4074074074074,-9.625,114.8148148148148,41.083333333333336,133.33333333333331,39C151.85185185185185,36.916666666666664,159.25925925925924,-23.791666666666668,177.77777777777777,-24C196.2962962962963,-24.208333333333332,203.70370370370372,35.5,222.22222222222223,38C240.74074074074073,40.5,248.14814814814812,-13.458333333333334,266.66666666666663,-12C285.18518518518516,-10.541666666666666,292.59259259259255,41.25,311.1111111111111,45C329.6296296296296,48.75,337.037037037037,5.791666666666667,355.55555555555554,6C374.0740740740741,6.208333333333333,381.48148148148147,46.625,400,46C418.51851851851853,45.375,425.9259259259259,1.9583333333333333,444.44444444444446,3C462.962962962963,4.041666666666667,470.3703703703704,53.291666666666664,488.88888888888886,51C507.40740740740733,48.708333333333336,514.8148148148148,-7.166666666666667,533.3333333333333,-8C551.8518518518517,-8.833333333333334,559.2592592592592,45.541666666666664,577.7777777777777,47C596.2962962962962,48.458333333333336,603.7037037037037,-1.625,622.2222222222222,-1C640.7407407407406,-0.375,648.1481481481482,47.708333333333336,666.6666666666666,50C685.1851851851851,52.291666666666664,692.5925925925926,8.333333333333334,711.1111111111111,10C729.6296296296296,11.666666666666666,737.0370370370371,55.083333333333336,755.5555555555555,58C774.074074074074,60.916666666666664,790.7407407407408,31.083333333333336,800,24" transform="matrix(1,0,0,1,0,250)"></path><path d="M10,10C17.175925925925924,11.666666666666666,28.00925925925926,23,44.44444444444444,18C60.879629629629626,13,70.37037037037037,-18.375,88.88888888888889,-14C107.4074074074074,-9.625,114.8148148148148,41.083333333333336,133.33333333333331,39C151.85185185185185,36.916666666666664,159.25925925925924,-23.791666666666668,177.77777777777777,-24C196.2962962962963,-24.208333333333332,203.70370370370372,35.5,222.22222222222223,38C240.74074074074073,40.5,248.14814814814812,-13.458333333333334,266.66666666666663,-12C285.18518518518516,-10.541666666666666,292.59259259259255,41.25,311.1111111111111,45C329.6296296296296,48.75,337.037037037037,5.791666666666667,355.55555555555554,6C374.0740740740741,6.208333333333333,381.48148148148147,46.625,400,46C418.51851851851853,45.375,425.9259259259259,1.9583333333333333,444.44444444444446,3C462.962962962963,4.041666666666667,470.3703703703704,53.291666666666664,488.88888888888886,51C507.40740740740733,48.708333333333336,514.8148148148148,-7.166666666666667,533.3333333333333,-8C551.8518518518517,-8.833333333333334,559.2592592592592,45.541666666666664,577.7777777777777,47C596.2962962962962,48.458333333333336,603.7037037037037,-1.625,622.2222222222222,-1C640.7407407407406,-0.375,648.1481481481482,47.708333333333336,666.6666666666666,50C685.1851851851851,52.291666666666664,692.5925925925926,8.333333333333334,711.1111111111111,10C729.6296296296296,11.666666666666666,737.0370370370371,55.083333333333336,755.5555555555555,58C774.074074074074,60.916666666666664,790.7407407407408,31.083333333333336,800,24" transform="matrix(1,0,0,1,0,240)"></path><path d="M10,10C17.175925925925924,11.666666666666666,28.00925925925926,23,44.44444444444444,18C60.879629629629626,13,70.37037037037037,-18.375,88.88888888888889,-14C107.4074074074074,-9.625,114.8148148148148,41.083333333333336,133.33333333333331,39C151.85185185185185,36.916666666666664,159.25925925925924,-23.791666666666668,177.77777777777777,-24C196.2962962962963,-24.208333333333332,203.70370370370372,35.5,222.22222222222223,38C240.74074074074073,40.5,248.14814814814812,-13.458333333333334,266.66666666666663,-12C285.18518518518516,-10.541666666666666,292.59259259259255,41.25,311.1111111111111,45C329.6296296296296,48.75,337.037037037037,5.791666666666667,355.55555555555554,6C374.0740740740741,6.208333333333333,381.48148148148147,46.625,400,46C418.51851851851853,45.375,425.9259259259259,1.9583333333333333,444.44444444444446,3C462.962962962963,4.041666666666667,470.3703703703704,53.291666666666664,488.88888888888886,51C507.40740740740733,48.708333333333336,514.8148148148148,-7.166666666666667,533.3333333333333,-8C551.8518518518517,-8.833333333333334,559.2592592592592,45.541666666666664,577.7777777777777,47C596.2962962962962,48.458333333333336,603.7037037037037,-1.625,622.2222222222222,-1C640.7407407407406,-0.375,648.1481481481482,47.708333333333336,666.6666666666666,50C685.1851851851851,52.291666666666664,692.5925925925926,8.333333333333334,711.1111111111111,10C729.6296296296296,11.666666666666666,737.0370370370371,55.083333333333336,755.5555555555555,58C774.074074074074,60.916666666666664,790.7407407407408,31.083333333333336,800,24" transform="matrix(1,0,0,1,0,230)"></path><path d="M10,10C17.175925925925924,11.666666666666666,28.00925925925926,23,44.44444444444444,18C60.879629629629626,13,70.37037037037037,-18.375,88.88888888888889,-14C107.4074074074074,-9.625,114.8148148148148,41.083333333333336,133.33333333333331,39C151.85185185185185,36.916666666666664,159.25925925925924,-23.791666666666668,177.77777777777777,-24C196.2962962962963,-24.208333333333332,203.70370370370372,35.5,222.22222222222223,38C240.74074074074073,40.5,248.14814814814812,-13.458333333333334,266.66666666666663,-12C285.18518518518516,-10.541666666666666,292.59259259259255,41.25,311.1111111111111,45C329.6296296296296,48.75,337.037037037037,5.791666666666667,355.55555555555554,6C374.0740740740741,6.208333333333333,381.48148148148147,46.625,400,46C418.51851851851853,45.375,425.9259259259259,1.9583333333333333,444.44444444444446,3C462.962962962963,4.041666666666667,470.3703703703704,53.291666666666664,488.88888888888886,51C507.40740740740733,48.708333333333336,514.8148148148148,-7.166666666666667,533.3333333333333,-8C551.8518518518517,-8.833333333333334,559.2592592592592,45.541666666666664,577.7777777777777,47C596.2962962962962,48.458333333333336,603.7037037037037,-1.625,622.2222222222222,-1C640.7407407407406,-0.375,648.1481481481482,47.708333333333336,666.6666666666666,50C685.1851851851851,52.291666666666664,692.5925925925926,8.333333333333334,711.1111111111111,10C729.6296296296296,11.666666666666666,737.0370370370371,55.083333333333336,755.5555555555555,58C774.074074074074,60.916666666666664,790.7407407407408,31.083333333333336,800,24" transform="matrix(1,0,0,1,0,220)"></path><path d="M10,10C17.175925925925924,11.666666666666666,28.00925925925926,23,44.44444444444444,18C60.879629629629626,13,70.37037037037037,-18.375,88.88888888888889,-14C107.4074074074074,-9.625,114.8148148148148,41.083333333333336,133.33333333333331,39C151.85185185185185,36.916666666666664,159.25925925925924,-23.791666666666668,177.77777777777777,-24C196.2962962962963,-24.208333333333332,203.70370370370372,35.5,222.22222222222223,38C240.74074074074073,40.5,248.14814814814812,-13.458333333333334,266.66666666666663,-12C285.18518518518516,-10.541666666666666,292.59259259259255,41.25,311.1111111111111,45C329.6296296296296,48.75,337.037037037037,5.791666666666667,355.55555555555554,6C374.0740740740741,6.208333333333333,381.48148148148147,46.625,400,46C418.51851851851853,45.375,425.9259259259259,1.9583333333333333,444.44444444444446,3C462.962962962963,4.041666666666667,470.3703703703704,53.291666666666664,488.88888888888886,51C507.40740740740733,48.708333333333336,514.8148148148148,-7.166666666666667,533.3333333333333,-8C551.8518518518517,-8.833333333333334,559.2592592592592,45.541666666666664,577.7777777777777,47C596.2962962962962,48.458333333333336,603.7037037037037,-1.625,622.2222222222222,-1C640.7407407407406,-0.375,648.1481481481482,47.708333333333336,666.6666666666666,50C685.1851851851851,52.291666666666664,692.5925925925926,8.333333333333334,711.1111111111111,10C729.6296296296296,11.666666666666666,737.0370370370371,55.083333333333336,755.5555555555555,58C774.074074074074,60.916666666666664,790.7407407407408,31.083333333333336,800,24" transform="matrix(1,0,0,1,0,210)"></path><path d="M10,10C17.175925925925924,11.666666666666666,28.00925925925926,23,44.44444444444444,18C60.879629629629626,13,70.37037037037037,-18.375,88.88888888888889,-14C107.4074074074074,-9.625,114.8148148148148,41.083333333333336,133.33333333333331,39C151.85185185185185,36.916666666666664,159.25925925925924,-23.791666666666668,177.77777777777777,-24C196.2962962962963,-24.208333333333332,203.70370370370372,35.5,222.22222222222223,38C240.74074074074073,40.5,248.14814814814812,-13.458333333333334,266.66666666666663,-12C285.18518518518516,-10.541666666666666,292.59259259259255,41.25,311.1111111111111,45C329.6296296296296,48.75,337.037037037037,5.791666666666667,355.55555555555554,6C374.0740740740741,6.208333333333333,381.48148148148147,46.625,400,46C418.51851851851853,45.375,425.9259259259259,1.9583333333333333,444.44444444444446,3C462.962962962963,4.041666666666667,470.3703703703704,53.291666666666664,488.88888888888886,51C507.40740740740733,48.708333333333336,514.8148148148148,-7.166666666666667,533.3333333333333,-8C551.8518518518517,-8.833333333333334,559.2592592592592,45.541666666666664,577.7777777777777,47C596.2962962962962,48.458333333333336,603.7037037037037,-1.625,622.2222222222222,-1C640.7407407407406,-0.375,648.1481481481482,47.708333333333336,666.6666666666666,50C685.1851851851851,52.291666666666664,692.5925925925926,8.333333333333334,711.1111111111111,10C729.6296296296296,11.666666666666666,737.0370370370371,55.083333333333336,755.5555555555555,58C774.074074074074,60.916666666666664,790.7407407407408,31.083333333333336,800,24" transform="matrix(1,0,0,1,0,200)"></path><path d="M10,10C17.175925925925924,11.666666666666666,28.00925925925926,23,44.44444444444444,18C60.879629629629626,13,70.37037037037037,-18.375,88.88888888888889,-14C107.4074074074074,-9.625,114.8148148148148,41.083333333333336,133.33333333333331,39C151.85185185185185,36.916666666666664,159.25925925925924,-23.791666666666668,177.77777777777777,-24C196.2962962962963,-24.208333333333332,203.70370370370372,35.5,222.22222222222223,38C240.74074074074073,40.5,248.14814814814812,-13.458333333333334,266.66666666666663,-12C285.18518518518516,-10.541666666666666,292.59259259259255,41.25,311.1111111111111,45C329.6296296296296,48.75,337.037037037037,5.791666666666667,355.55555555555554,6C374.0740740740741,6.208333333333333,381.48148148148147,46.625,400,46C418.51851851851853,45.375,425.9259259259259,1.9583333333333333,444.44444444444446,3C462.962962962963,4.041666666666667,470.3703703703704,53.291666666666664,488.88888888888886,51C507.40740740740733,48.708333333333336,514.8148148148148,-7.166666666666667,533.3333333333333,-8C551.8518518518517,-8.833333333333334,559.2592592592592,45.541666666666664,577.7777777777777,47C596.2962962962962,48.458333333333336,603.7037037037037,-1.625,622.2222222222222,-1C640.7407407407406,-0.375,648.1481481481482,47.708333333333336,666.6666666666666,50C685.1851851851851,52.291666666666664,692.5925925925926,8.333333333333334,711.1111111111111,10C729.6296296296296,11.666666666666666,737.0370370370371,55.083333333333336,755.5555555555555,58C774.074074074074,60.916666666666664,790.7407407407408,31.083333333333336,800,24" transform="matrix(1,0,0,1,0,190)"></path><path d="M10,10C17.175925925925924,11.666666666666666,28.00925925925926,23,44.44444444444444,18C60.879629629629626,13,70.37037037037037,-18.375,88.88888888888889,-14C107.4074074074074,-9.625,114.8148148148148,41.083333333333336,133.33333333333331,39C151.85185185185185,36.916666666666664,159.25925925925924,-23.791666666666668,177.77777777777777,-24C196.2962962962963,-24.208333333333332,203.70370370370372,35.5,222.22222222222223,38C240.74074074074073,40.5,248.14814814814812,-13.458333333333334,266.66666666666663,-12C285.18518518518516,-10.541666666666666,292.59259259259255,41.25,311.1111111111111,45C329.6296296296296,48.75,337.037037037037,5.791666666666667,355.55555555555554,6C374.0740740740741,6.208333333333333,381.48148148148147,46.625,400,46C418.51851851851853,45.375,425.9259259259259,1.9583333333333333,444.44444444444446,3C462.962962962963,4.041666666666667,470.3703703703704,53.291666666666664,488.88888888888886,51C507.40740740740733,48.708333333333336,514.8148148148148,-7.166666666666667,533.3333333333333,-8C551.8518518518517,-8.833333333333334,559.2592592592592,45.541666666666664,577.7777777777777,47C596.2962962962962,48.458333333333336,603.7037037037037,-1.625,622.2222222222222,-1C640.7407407407406,-0.375,648.1481481481482,47.708333333333336,666.6666666666666,50C685.1851851851851,52.291666666666664,692.5925925925926,8.333333333333334,711.1111111111111,10C729.6296296296296,11.666666666666666,737.0370370370371,55.083333333333336,755.5555555555555,58C774.074074074074,60.916666666666664,790.7407407407408,31.083333333333336,800,24" transform="matrix(1,0,0,1,0,180)"></path><path d="M10,10C17.175925925925924,11.666666666666666,28.00925925925926,23,44.44444444444444,18C60.879629629629626,13,70.37037037037037,-18.375,88.88888888888889,-14C107.4074074074074,-9.625,114.8148148148148,41.083333333333336,133.33333333333331,39C151.85185185185185,36.916666666666664,159.25925925925924,-23.791666666666668,177.77777777777777,-24C196.2962962962963,-24.208333333333332,203.70370370370372,35.5,222.22222222222223,38C240.74074074074073,40.5,248.14814814814812,-13.458333333333334,266.66666666666663,-12C285.18518518518516,-10.541666666666666,292.59259259259255,41.25,311.1111111111111,45C329.6296296296296,48.75,337.037037037037,5.791666666666667,355.55555555555554,6C374.0740740740741,6.208333333333333,381.48148148148147,46.625,400,46C418.51851851851853,45.375,425.9259259259259,1.9583333333333333,444.44444444444446,3C462.962962962963,4.041666666666667,470.3703703703704,53.291666666666664,488.88888888888886,51C507.40740740740733,48.708333333333336,514.8148148148148,-7.166666666666667,533.3333333333333,-8C551.8518518518517,-8.833333333333334,559.2592592592592,45.541666666666664,577.7777777777777,47C596.2962962962962,48.458333333333336,603.7037037037037,-1.625,622.2222222222222,-1C640.7407407407406,-0.375,648.1481481481482,47.708333333333336,666.6666666666666,50C685.1851851851851,52.291666666666664,692.5925925925926,8.333333333333334,711.1111111111111,10C729.6296296296296,11.666666666666666,737.0370370370371,55.083333333333336,755.5555555555555,58C774.074074074074,60.916666666666664,790.7407407407408,31.083333333333336,800,24" transform="matrix(1,0,0,1,0,170)"></path><path d="M10,10C17.175925925925924,11.666666666666666,28.00925925925926,23,44.44444444444444,18C60.879629629629626,13,70.37037037037037,-18.375,88.88888888888889,-14C107.4074074074074,-9.625,114.8148148148148,41.083333333333336,133.33333333333331,39C151.85185185185185,36.916666666666664,159.25925925925924,-23.791666666666668,177.77777777777777,-24C196.2962962962963,-24.208333333333332,203.70370370370372,35.5,222.22222222222223,38C240.74074074074073,40.5,248.14814814814812,-13.458333333333334,266.66666666666663,-12C285.18518518518516,-10.541666666666666,292.59259259259255,41.25,311.1111111111111,45C329.6296296296296,48.75,337.037037037037,5.791666666666667,355.55555555555554,6C374.0740740740741,6.208333333333333,381.48148148148147,46.625,400,46C418.51851851851853,45.375,425.9259259259259,1.9583333333333333,444.44444444444446,3C462.962962962963,4.041666666666667,470.3703703703704,53.291666666666664,488.88888888888886,51C507.40740740740733,48.708333333333336,514.8148148148148,-7.166666666666667,533.3333333333333,-8C551.8518518518517,-8.833333333333334,559.2592592592592,45.541666666666664,577.7777777777777,47C596.2962962962962,48.458333333333336,603.7037037037037,-1.625,622.2222222222222,-1C640.7407407407406,-0.375,648.1481481481482,47.708333333333336,666.6666666666666,50C685.1851851851851,52.291666666666664,692.5925925925926,8.333333333333334,711.1111111111111,10C729.6296296296296,11.666666666666666,737.0370370370371,55.083333333333336,755.5555555555555,58C774.074074074074,60.916666666666664,790.7407407407408,31.083333333333336,800,24" transform="matrix(1,0,0,1,0,160)"></path><path d="M10,10C17.175925925925924,11.666666666666666,28.00925925925926,23,44.44444444444444,18C60.879629629629626,13,70.37037037037037,-18.375,88.88888888888889,-14C107.4074074074074,-9.625,114.8148148148148,41.083333333333336,133.33333333333331,39C151.85185185185185,36.916666666666664,159.25925925925924,-23.791666666666668,177.77777777777777,-24C196.2962962962963,-24.208333333333332,203.70370370370372,35.5,222.22222222222223,38C240.74074074074073,40.5,248.14814814814812,-13.458333333333334,266.66666666666663,-12C285.18518518518516,-10.541666666666666,292.59259259259255,41.25,311.1111111111111,45C329.6296296296296,48.75,337.037037037037,5.791666666666667,355.55555555555554,6C374.0740740740741,6.208333333333333,381.48148148148147,46.625,400,46C418.51851851851853,45.375,425.9259259259259,1.9583333333333333,444.44444444444446,3C462.962962962963,4.041666666666667,470.3703703703704,53.291666666666664,488.88888888888886,51C507.40740740740733,48.708333333333336,514.8148148148148,-7.166666666666667,533.3333333333333,-8C551.8518518518517,-8.833333333333334,559.2592592592592,45.541666666666664,577.7777777777777,47C596.2962962962962,48.458333333333336,603.7037037037037,-1.625,622.2222222222222,-1C640.7407407407406,-0.375,648.1481481481482,47.708333333333336,666.6666666666666,50C685.1851851851851,52.291666666666664,692.5925925925926,8.333333333333334,711.1111111111111,10C729.6296296296296,11.666666666666666,737.0370370370371,55.083333333333336,755.5555555555555,58C774.074074074074,60.916666666666664,790.7407407407408,31.083333333333336,800,24" transform="matrix(1,0,0,1,0,150)"></path><path d="M10,10C17.175925925925924,11.666666666666666,28.00925925925926,23,44.44444444444444,18C60.879629629629626,13,70.37037037037037,-18.375,88.88888888888889,-14C107.4074074074074,-9.625,114.8148148148148,41.083333333333336,133.33333333333331,39C151.85185185185185,36.916666666666664,159.25925925925924,-23.791666666666668,177.77777777777777,-24C196.2962962962963,-24.208333333333332,203.70370370370372,35.5,222.22222222222223,38C240.74074074074073,40.5,248.14814814814812,-13.458333333333334,266.66666666666663,-12C285.18518518518516,-10.541666666666666,292.59259259259255,41.25,311.1111111111111,45C329.6296296296296,48.75,337.037037037037,5.791666666666667,355.55555555555554,6C374.0740740740741,6.208333333333333,381.48148148148147,46.625,400,46C418.51851851851853,45.375,425.9259259259259,1.9583333333333333,444.44444444444446,3C462.962962962963,4.041666666666667,470.3703703703704,53.291666666666664,488.88888888888886,51C507.40740740740733,48.708333333333336,514.8148148148148,-7.166666666666667,533.3333333333333,-8C551.8518518518517,-8.833333333333334,559.2592592592592,45.541666666666664,577.7777777777777,47C596.2962962962962,48.458333333333336,603.7037037037037,-1.625,622.2222222222222,-1C640.7407407407406,-0.375,648.1481481481482,47.708333333333336,666.6666666666666,50C685.1851851851851,52.291666666666664,692.5925925925926,8.333333333333334,711.1111111111111,10C729.6296296296296,11.666666666666666,737.0370370370371,55.083333333333336,755.5555555555555,58C774.074074074074,60.916666666666664,790.7407407407408,31.083333333333336,800,24" transform="matrix(1,0,0,1,0,140)"></path><path d="M10,10C17.175925925925924,11.666666666666666,28.00925925925926,23,44.44444444444444,18C60.879629629629626,13,70.37037037037037,-18.375,88.88888888888889,-14C107.4074074074074,-9.625,114.8148148148148,41.083333333333336,133.33333333333331,39C151.85185185185185,36.916666666666664,159.25925925925924,-23.791666666666668,177.77777777777777,-24C196.2962962962963,-24.208333333333332,203.70370370370372,35.5,222.22222222222223,38C240.74074074074073,40.5,248.14814814814812,-13.458333333333334,266.66666666666663,-12C285.18518518518516,-10.541666666666666,292.59259259259255,41.25,311.1111111111111,45C329.6296296296296,48.75,337.037037037037,5.791666666666667,355.55555555555554,6C374.0740740740741,6.208333333333333,381.48148148148147,46.625,400,46C418.51851851851853,45.375,425.9259259259259,1.9583333333333333,444.44444444444446,3C462.962962962963,4.041666666666667,470.3703703703704,53.291666666666664,488.88888888888886,51C507.40740740740733,48.708333333333336,514.8148148148148,-7.166666666666667,533.3333333333333,-8C551.8518518518517,-8.833333333333334,559.2592592592592,45.541666666666664,577.7777777777777,47C596.2962962962962,48.458333333333336,603.7037037037037,-1.625,622.2222222222222,-1C640.7407407407406,-0.375,648.1481481481482,47.708333333333336,666.6666666666666,50C685.1851851851851,52.291666666666664,692.5925925925926,8.333333333333334,711.1111111111111,10C729.6296296296296,11.666666666666666,737.0370370370371,55.083333333333336,755.5555555555555,58C774.074074074074,60.916666666666664,790.7407407407408,31.083333333333336,800,24" transform="matrix(1,0,0,1,0,130)"></path><path d="M10,10C17.175925925925924,11.666666666666666,28.00925925925926,23,44.44444444444444,18C60.879629629629626,13,70.37037037037037,-18.375,88.88888888888889,-14C107.4074074074074,-9.625,114.8148148148148,41.083333333333336,133.33333333333331,39C151.85185185185185,36.916666666666664,159.25925925925924,-23.791666666666668,177.77777777777777,-24C196.2962962962963,-24.208333333333332,203.70370370370372,35.5,222.22222222222223,38C240.74074074074073,40.5,248.14814814814812,-13.458333333333334,266.66666666666663,-12C285.18518518518516,-10.541666666666666,292.59259259259255,41.25,311.1111111111111,45C329.6296296296296,48.75,337.037037037037,5.791666666666667,355.55555555555554,6C374.0740740740741,6.208333333333333,381.48148148148147,46.625,400,46C418.51851851851853,45.375,425.9259259259259,1.9583333333333333,444.44444444444446,3C462.962962962963,4.041666666666667,470.3703703703704,53.291666666666664,488.88888888888886,51C507.40740740740733,48.708333333333336,514.8148148148148,-7.166666666666667,533.3333333333333,-8C551.8518518518517,-8.833333333333334,559.2592592592592,45.541666666666664,577.7777777777777,47C596.2962962962962,48.458333333333336,603.7037037037037,-1.625,622.2222222222222,-1C640.7407407407406,-0.375,648.1481481481482,47.708333333333336,666.6666666666666,50C685.1851851851851,52.291666666666664,692.5925925925926,8.333333333333334,711.1111111111111,10C729.6296296296296,11.666666666666666,737.0370370370371,55.083333333333336,755.5555555555555,58C774.074074074074,60.916666666666664,790.7407407407408,31.083333333333336,800,24" transform="matrix(1,0,0,1,0,120)"></path><path d="M10,10C17.175925925925924,11.666666666666666,28.00925925925926,23,44.44444444444444,18C60.879629629629626,13,70.37037037037037,-18.375,88.88888888888889,-14C107.4074074074074,-9.625,114.8148148148148,41.083333333333336,133.33333333333331,39C151.85185185185185,36.916666666666664,159.25925925925924,-23.791666666666668,177.77777777777777,-24C196.2962962962963,-24.208333333333332,203.70370370370372,35.5,222.22222222222223,38C240.74074074074073,40.5,248.14814814814812,-13.458333333333334,266.66666666666663,-12C285.18518518518516,-10.541666666666666,292.59259259259255,41.25,311.1111111111111,45C329.6296296296296,48.75,337.037037037037,5.791666666666667,355.55555555555554,6C374.0740740740741,6.208333333333333,381.48148148148147,46.625,400,46C418.51851851851853,45.375,425.9259259259259,1.9583333333333333,444.44444444444446,3C462.962962962963,4.041666666666667,470.3703703703704,53.291666666666664,488.88888888888886,51C507.40740740740733,48.708333333333336,514.8148148148148,-7.166666666666667,533.3333333333333,-8C551.8518518518517,-8.833333333333334,559.2592592592592,45.541666666666664,577.7777777777777,47C596.2962962962962,48.458333333333336,603.7037037037037,-1.625,622.2222222222222,-1C640.7407407407406,-0.375,648.1481481481482,47.708333333333336,666.6666666666666,50C685.1851851851851,52.291666666666664,692.5925925925926,8.333333333333334,711.1111111111111,10C729.6296296296296,11.666666666666666,737.0370370370371,55.083333333333336,755.5555555555555,58C774.074074074074,60.916666666666664,790.7407407407408,31.083333333333336,800,24" transform="matrix(1,0,0,1,0,110)"></path><path d="M10,10C17.175925925925924,11.666666666666666,28.00925925925926,23,44.44444444444444,18C60.879629629629626,13,70.37037037037037,-18.375,88.88888888888889,-14C107.4074074074074,-9.625,114.8148148148148,41.083333333333336,133.33333333333331,39C151.85185185185185,36.916666666666664,159.25925925925924,-23.791666666666668,177.77777777777777,-24C196.2962962962963,-24.208333333333332,203.70370370370372,35.5,222.22222222222223,38C240.74074074074073,40.5,248.14814814814812,-13.458333333333334,266.66666666666663,-12C285.18518518518516,-10.541666666666666,292.59259259259255,41.25,311.1111111111111,45C329.6296296296296,48.75,337.037037037037,5.791666666666667,355.55555555555554,6C374.0740740740741,6.208333333333333,381.48148148148147,46.625,400,46C418.51851851851853,45.375,425.9259259259259,1.9583333333333333,444.44444444444446,3C462.962962962963,4.041666666666667,470.3703703703704,53.291666666666664,488.88888888888886,51C507.40740740740733,48.708333333333336,514.8148148148148,-7.166666666666667,533.3333333333333,-8C551.8518518518517,-8.833333333333334,559.2592592592592,45.541666666666664,577.7777777777777,47C596.2962962962962,48.458333333333336,603.7037037037037,-1.625,622.2222222222222,-1C640.7407407407406,-0.375,648.1481481481482,47.708333333333336,666.6666666666666,50C685.1851851851851,52.291666666666664,692.5925925925926,8.333333333333334,711.1111111111111,10C729.6296296296296,11.666666666666666,737.0370370370371,55.083333333333336,755.5555555555555,58C774.074074074074,60.916666666666664,790.7407407407408,31.083333333333336,800,24" transform="matrix(1,0,0,1,0,100)"></path><path d="M10,10C17.175925925925924,11.666666666666666,28.00925925925926,23,44.44444444444444,18C60.879629629629626,13,70.37037037037037,-18.375,88.88888888888889,-14C107.4074074074074,-9.625,114.8148148148148,41.083333333333336,133.33333333333331,39C151.85185185185185,36.916666666666664,159.25925925925924,-23.791666666666668,177.77777777777777,-24C196.2962962962963,-24.208333333333332,203.70370370370372,35.5,222.22222222222223,38C240.74074074074073,40.5,248.14814814814812,-13.458333333333334,266.66666666666663,-12C285.18518518518516,-10.541666666666666,292.59259259259255,41.25,311.1111111111111,45C329.6296296296296,48.75,337.037037037037,5.791666666666667,355.55555555555554,6C374.0740740740741,6.208333333333333,381.48148148148147,46.625,400,46C418.51851851851853,45.375,425.9259259259259,1.9583333333333333,444.44444444444446,3C462.962962962963,4.041666666666667,470.3703703703704,53.291666666666664,488.88888888888886,51C507.40740740740733,48.708333333333336,514.8148148148148,-7.166666666666667,533.3333333333333,-8C551.8518518518517,-8.833333333333334,559.2592592592592,45.541666666666664,577.7777777777777,47C596.2962962962962,48.458333333333336,603.7037037037037,-1.625,622.2222222222222,-1C640.7407407407406,-0.375,648.1481481481482,47.708333333333336,666.6666666666666,50C685.1851851851851,52.291666666666664,692.5925925925926,8.333333333333334,711.1111111111111,10C729.6296296296296,11.666666666666666,737.0370370370371,55.083333333333336,755.5555555555555,58C774.074074074074,60.916666666666664,790.7407407407408,31.083333333333336,800,24" transform="matrix(1,0,0,1,0,90)"></path><path d="M10,10C17.175925925925924,11.666666666666666,28.00925925925926,23,44.44444444444444,18C60.879629629629626,13,70.37037037037037,-18.375,88.88888888888889,-14C107.4074074074074,-9.625,114.8148148148148,41.083333333333336,133.33333333333331,39C151.85185185185185,36.916666666666664,159.25925925925924,-23.791666666666668,177.77777777777777,-24C196.2962962962963,-24.208333333333332,203.70370370370372,35.5,222.22222222222223,38C240.74074074074073,40.5,248.14814814814812,-13.458333333333334,266.66666666666663,-12C285.18518518518516,-10.541666666666666,292.59259259259255,41.25,311.1111111111111,45C329.6296296296296,48.75,337.037037037037,5.791666666666667,355.55555555555554,6C374.0740740740741,6.208333333333333,381.48148148148147,46.625,400,46C418.51851851851853,45.375,425.9259259259259,1.9583333333333333,444.44444444444446,3C462.962962962963,4.041666666666667,470.3703703703704,53.291666666666664,488.88888888888886,51C507.40740740740733,48.708333333333336,514.8148148148148,-7.166666666666667,533.3333333333333,-8C551.8518518518517,-8.833333333333334,559.2592592592592,45.541666666666664,577.7777777777777,47C596.2962962962962,48.458333333333336,603.7037037037037,-1.625,622.2222222222222,-1C640.7407407407406,-0.375,648.1481481481482,47.708333333333336,666.6666666666666,50C685.1851851851851,52.291666666666664,692.5925925925926,8.333333333333334,711.1111111111111,10C729.6296296296296,11.666666666666666,737.0370370370371,55.083333333333336,755.5555555555555,58C774.074074074074,60.916666666666664,790.7407407407408,31.083333333333336,800,24" transform="matrix(1,0,0,1,0,80)"></path><path d="M10,10C17.175925925925924,11.666666666666666,28.00925925925926,23,44.44444444444444,18C60.879629629629626,13,70.37037037037037,-18.375,88.88888888888889,-14C107.4074074074074,-9.625,114.8148148148148,41.083333333333336,133.33333333333331,39C151.85185185185185,36.916666666666664,159.25925925925924,-23.791666666666668,177.77777777777777,-24C196.2962962962963,-24.208333333333332,203.70370370370372,35.5,222.22222222222223,38C240.74074074074073,40.5,248.14814814814812,-13.458333333333334,266.66666666666663,-12C285.18518518518516,-10.541666666666666,292.59259259259255,41.25,311.1111111111111,45C329.6296296296296,48.75,337.037037037037,5.791666666666667,355.55555555555554,6C374.0740740740741,6.208333333333333,381.48148148148147,46.625,400,46C418.51851851851853,45.375,425.9259259259259,1.9583333333333333,444.44444444444446,3C462.962962962963,4.041666666666667,470.3703703703704,53.291666666666664,488.88888888888886,51C507.40740740740733,48.708333333333336,514.8148148148148,-7.166666666666667,533.3333333333333,-8C551.8518518518517,-8.833333333333334,559.2592592592592,45.541666666666664,577.7777777777777,47C596.2962962962962,48.458333333333336,603.7037037037037,-1.625,622.2222222222222,-1C640.7407407407406,-0.375,648.1481481481482,47.708333333333336,666.6666666666666,50C685.1851851851851,52.291666666666664,692.5925925925926,8.333333333333334,711.1111111111111,10C729.6296296296296,11.666666666666666,737.0370370370371,55.083333333333336,755.5555555555555,58C774.074074074074,60.916666666666664,790.7407407407408,31.083333333333336,800,24" transform="matrix(1,0,0,1,0,70)"></path><path d="M10,10C17.175925925925924,11.666666666666666,28.00925925925926,23,44.44444444444444,18C60.879629629629626,13,70.37037037037037,-18.375,88.88888888888889,-14C107.4074074074074,-9.625,114.8148148148148,41.083333333333336,133.33333333333331,39C151.85185185185185,36.916666666666664,159.25925925925924,-23.791666666666668,177.77777777777777,-24C196.2962962962963,-24.208333333333332,203.70370370370372,35.5,222.22222222222223,38C240.74074074074073,40.5,248.14814814814812,-13.458333333333334,266.66666666666663,-12C285.18518518518516,-10.541666666666666,292.59259259259255,41.25,311.1111111111111,45C329.6296296296296,48.75,337.037037037037,5.791666666666667,355.55555555555554,6C374.0740740740741,6.208333333333333,381.48148148148147,46.625,400,46C418.51851851851853,45.375,425.9259259259259,1.9583333333333333,444.44444444444446,3C462.962962962963,4.041666666666667,470.3703703703704,53.291666666666664,488.88888888888886,51C507.40740740740733,48.708333333333336,514.8148148148148,-7.166666666666667,533.3333333333333,-8C551.8518518518517,-8.833333333333334,559.2592592592592,45.541666666666664,577.7777777777777,47C596.2962962962962,48.458333333333336,603.7037037037037,-1.625,622.2222222222222,-1C640.7407407407406,-0.375,648.1481481481482,47.708333333333336,666.6666666666666,50C685.1851851851851,52.291666666666664,692.5925925925926,8.333333333333334,711.1111111111111,10C729.6296296296296,11.666666666666666,737.0370370370371,55.083333333333336,755.5555555555555,58C774.074074074074,60.916666666666664,790.7407407407408,31.083333333333336,800,24" transform="matrix(1,0,0,1,0,60)"></path><path d="M10,10C17.175925925925924,11.666666666666666,28.00925925925926,23,44.44444444444444,18C60.879629629629626,13,70.37037037037037,-18.375,88.88888888888889,-14C107.4074074074074,-9.625,114.8148148148148,41.083333333333336,133.33333333333331,39C151.85185185185185,36.916666666666664,159.25925925925924,-23.791666666666668,177.77777777777777,-24C196.2962962962963,-24.208333333333332,203.70370370370372,35.5,222.22222222222223,38C240.74074074074073,40.5,248.14814814814812,-13.458333333333334,266.66666666666663,-12C285.18518518518516,-10.541666666666666,292.59259259259255,41.25,311.1111111111111,45C329.6296296296296,48.75,337.037037037037,5.791666666666667,355.55555555555554,6C374.0740740740741,6.208333333333333,381.48148148148147,46.625,400,46C418.51851851851853,45.375,425.9259259259259,1.9583333333333333,444.44444444444446,3C462.962962962963,4.041666666666667,470.3703703703704,53.291666666666664,488.88888888888886,51C507.40740740740733,48.708333333333336,514.8148148148148,-7.166666666666667,533.3333333333333,-8C551.8518518518517,-8.833333333333334,559.2592592592592,45.541666666666664,577.7777777777777,47C596.2962962962962,48.458333333333336,603.7037037037037,-1.625,622.2222222222222,-1C640.7407407407406,-0.375,648.1481481481482,47.708333333333336,666.6666666666666,50C685.1851851851851,52.291666666666664,692.5925925925926,8.333333333333334,711.1111111111111,10C729.6296296296296,11.666666666666666,737.0370370370371,55.083333333333336,755.5555555555555,58C774.074074074074,60.916666666666664,790.7407407407408,31.083333333333336,800,24" transform="matrix(1,0,0,1,0,50)"></path><path d="M10,10C17.175925925925924,11.666666666666666,28.00925925925926,23,44.44444444444444,18C60.879629629629626,13,70.37037037037037,-18.375,88.88888888888889,-14C107.4074074074074,-9.625,114.8148148148148,41.083333333333336,133.33333333333331,39C151.85185185185185,36.916666666666664,159.25925925925924,-23.791666666666668,177.77777777777777,-24C196.2962962962963,-24.208333333333332,203.70370370370372,35.5,222.22222222222223,38C240.74074074074073,40.5,248.14814814814812,-13.458333333333334,266.66666666666663,-12C285.18518518518516,-10.541666666666666,292.59259259259255,41.25,311.1111111111111,45C329.6296296296296,48.75,337.037037037037,5.791666666666667,355.55555555555554,6C374.0740740740741,6.208333333333333,381.48148148148147,46.625,400,46C418.51851851851853,45.375,425.9259259259259,1.9583333333333333,444.44444444444446,3C462.962962962963,4.041666666666667,470.3703703703704,53.291666666666664,488.88888888888886,51C507.40740740740733,48.708333333333336,514.8148148148148,-7.166666666666667,533.3333333333333,-8C551.8518518518517,-8.833333333333334,559.2592592592592,45.541666666666664,577.7777777777777,47C596.2962962962962,48.458333333333336,603.7037037037037,-1.625,622.2222222222222,-1C640.7407407407406,-0.375,648.1481481481482,47.708333333333336,666.6666666666666,50C685.1851851851851,52.291666666666664,692.5925925925926,8.333333333333334,711.1111111111111,10C729.6296296296296,11.666666666666666,737.0370370370371,55.083333333333336,755.5555555555555,58C774.074074074074,60.916666666666664,790.7407407407408,31.083333333333336,800,24" transform="matrix(1,0,0,1,0,40)"></path><path d="M10,10C17.175925925925924,11.666666666666666,28.00925925925926,23,44.44444444444444,18C60.879629629629626,13,70.37037037037037,-18.375,88.88888888888889,-14C107.4074074074074,-9.625,114.8148148148148,41.083333333333336,133.33333333333331,39C151.85185185185185,36.916666666666664,159.25925925925924,-23.791666666666668,177.77777777777777,-24C196.2962962962963,-24.208333333333332,203.70370370370372,35.5,222.22222222222223,38C240.74074074074073,40.5,248.14814814814812,-13.458333333333334,266.66666666666663,-12C285.18518518518516,-10.541666666666666,292.59259259259255,41.25,311.1111111111111,45C329.6296296296296,48.75,337.037037037037,5.791666666666667,355.55555555555554,6C374.0740740740741,6.208333333333333,381.48148148148147,46.625,400,46C418.51851851851853,45.375,425.9259259259259,1.9583333333333333,444.44444444444446,3C462.962962962963,4.041666666666667,470.3703703703704,53.291666666666664,488.88888888888886,51C507.40740740740733,48.708333333333336,514.8148148148148,-7.166666666666667,533.3333333333333,-8C551.8518518518517,-8.833333333333334,559.2592592592592,45.541666666666664,577.7777777777777,47C596.2962962962962,48.458333333333336,603.7037037037037,-1.625,622.2222222222222,-1C640.7407407407406,-0.375,648.1481481481482,47.708333333333336,666.6666666666666,50C685.1851851851851,52.291666666666664,692.5925925925926,8.333333333333334,711.1111111111111,10C729.6296296296296,11.666666666666666,737.0370370370371,55.083333333333336,755.5555555555555,58C774.074074074074,60.916666666666664,790.7407407407408,31.083333333333336,800,24" transform="matrix(1,0,0,1,0,30)"></path><path d="M10,10C17.175925925925924,11.666666666666666,28.00925925925926,23,44.44444444444444,18C60.879629629629626,13,70.37037037037037,-18.375,88.88888888888889,-14C107.4074074074074,-9.625,114.8148148148148,41.083333333333336,133.33333333333331,39C151.85185185185185,36.916666666666664,159.25925925925924,-23.791666666666668,177.77777777777777,-24C196.2962962962963,-24.208333333333332,203.70370370370372,35.5,222.22222222222223,38C240.74074074074073,40.5,248.14814814814812,-13.458333333333334,266.66666666666663,-12C285.18518518518516,-10.541666666666666,292.59259259259255,41.25,311.1111111111111,45C329.6296296296296,48.75,337.037037037037,5.791666666666667,355.55555555555554,6C374.0740740740741,6.208333333333333,381.48148148148147,46.625,400,46C418.51851851851853,45.375,425.9259259259259,1.9583333333333333,444.44444444444446,3C462.962962962963,4.041666666666667,470.3703703703704,53.291666666666664,488.88888888888886,51C507.40740740740733,48.708333333333336,514.8148148148148,-7.166666666666667,533.3333333333333,-8C551.8518518518517,-8.833333333333334,559.2592592592592,45.541666666666664,577.7777777777777,47C596.2962962962962,48.458333333333336,603.7037037037037,-1.625,622.2222222222222,-1C640.7407407407406,-0.375,648.1481481481482,47.708333333333336,666.6666666666666,50C685.1851851851851,52.291666666666664,692.5925925925926,8.333333333333334,711.1111111111111,10C729.6296296296296,11.666666666666666,737.0370370370371,55.083333333333336,755.5555555555555,58C774.074074074074,60.916666666666664,790.7407407407408,31.083333333333336,800,24" transform="matrix(1,0,0,1,0,20)"></path><path d="M10,10C17.175925925925924,11.666666666666666,28.00925925925926,23,44.44444444444444,18C60.879629629629626,13,70.37037037037037,-18.375,88.88888888888889,-14C107.4074074074074,-9.625,114.8148148148148,41.083333333333336,133.33333333333331,39C151.85185185185185,36.916666666666664,159.25925925925924,-23.791666666666668,177.77777777777777,-24C196.2962962962963,-24.208333333333332,203.70370370370372,35.5,222.22222222222223,38C240.74074074074073,40.5,248.14814814814812,-13.458333333333334,266.66666666666663,-12C285.18518518518516,-10.541666666666666,292.59259259259255,41.25,311.1111111111111,45C329.6296296296296,48.75,337.037037037037,5.791666666666667,355.55555555555554,6C374.0740740740741,6.208333333333333,381.48148148148147,46.625,400,46C418.51851851851853,45.375,425.9259259259259,1.9583333333333333,444.44444444444446,3C462.962962962963,4.041666666666667,470.3703703703704,53.291666666666664,488.88888888888886,51C507.40740740740733,48.708333333333336,514.8148148148148,-7.166666666666667,533.3333333333333,-8C551.8518518518517,-8.833333333333334,559.2592592592592,45.541666666666664,577.7777777777777,47C596.2962962962962,48.458333333333336,603.7037037037037,-1.625,622.2222222222222,-1C640.7407407407406,-0.375,648.1481481481482,47.708333333333336,666.6666666666666,50C685.1851851851851,52.291666666666664,692.5925925925926,8.333333333333334,711.1111111111111,10C729.6296296296296,11.666666666666666,737.0370370370371,55.083333333333336,755.5555555555555,58C774.074074074074,60.916666666666664,790.7407407407408,31.083333333333336,800,24" transform="matrix(1,0,0,1,0,10)"></path></g></svg>